Armada-Compressed_Black.ufo
<glyph name="quotedbl" format="1">
  <advance width="292"/>
  <unicode hex="0022"/>
  <outline>
    <contour>
      <point x="287" y="398" type="line"/>
      <point x="151" y="398" type="line"/>
      <point x="151" y="720" type="line"/>
      <point x="287" y="720" type="line"/>
    </contour>
    <contour>
      <point x="141" y="398" type="line"/>
      <point x="5" y="398" type="line"/>
      <point x="5" y="720" type="line"/>
      <point x="141" y="720" type="line"/>
    </contour>
  </outline>
</glyph>
<glyph name="numbersign" format="1">
  <advance width="312"/>
  <unicode hex="0023"/>
  <outline>
    <contour>
      <point x="308" y="196" type="line"/>
      <point x="296" y="196" type="line"/>
      <point x="296" y="0" type="line"/>
      <point x="161" y="0" type="line"/>
      <point x="161" y="196" type="line"/>
      <point x="151" y="196" type="line"/>
      <point x="151" y="0" type="line"/>
      <point x="16" y="0" type="line"/>
      <point x="16" y="196" type="line"/>
      <point x="4" y="196" type="line"/>
      <point x="4" y="291" type="line"/>
      <point x="16" y="291" type="line"/>
      <point x="16" y="429" type="line"/>
      <point x="4" y="429" type="line"/>
      <point x="4" y="523" type="line"/>
      <point x="16" y="523" type="line"/>
      <point x="16" y="720" type="line"/>
      <point x="151" y="720" type="line"/>
      <point x="151" y="523" type="line"/>
      <point x="161" y="523" type="line"/>
      <point x="161" y="720" type="line"/>
      <point x="296" y="720" type="line"/>
      <point x="296" y="523" type="line"/>
      <point x="308" y="523" type="line"/>
      <point x="308" y="429" type="line"/>
      <point x="296" y="429" type="line"/>
      <point x="296" y="291" type="line"/>
      <point x="308" y="291" type="line"/>
    </contour>
    <contour>
      <point x="161" y="279" type="line"/>
      <point x="161" y="441" type="line"/>
      <point x="151" y="441" type="line"/>
      <point x="151" y="279" type="line"/>
    </contour>
  </outline>
</glyph>
<glyph name="dollar" format="1">
  <advance width="320"/>
  <unicode hex="0024"/>
  <outline>
    <contour>
      <point x="315" y="20" type="line"/>
      <point x="290" y="12"/>
      <point x="262" y="6"/>
      <point x="235" y="3" type="curve"/>
      <point x="235" y="-44" type="line"/>
      <point x="85" y="-44" type="line"/>
      <point x="85" y="3" type="line"/>
      <point x="58" y="6"/>
      <point x="30" y="12"/>
      <point x="5" y="20" type="curve"/>
      <point x="5" y="295" type="line"/>
      <point x="155" y="295" type="line"/>
      <point x="155" y="99" type="line"/>
      <point x="156" y="99"/>
      <point x="159" y="99"/>
      <point x="160" y="99" type="curve" smooth="yes"/>
      <point x="161" y="99"/>
      <point x="164" y="99"/>
      <point x="165" y="99" type="curve"/>
      <point x="165" y="304" type="line"/>
      <point x="5" y="304" type="line"/>
      <point x="5" y="700" type="line"/>
      <point x="30" y="708"/>
      <point x="58" y="714"/>
      <point x="85" y="717" type="curve"/>
      <point x="85" y="764" type="line"/>
      <point x="235" y="764" type="line"/>
      <point x="235" y="717" type="line"/>
      <point x="262" y="714"/>
      <point x="290" y="708"/>
      <point x="315" y="700" type="curve"/>
      <point x="315" y="425" type="line"/>
      <point x="165" y="425" type="line"/>
      <point x="165" y="620" type="line"/>
      <point x="164" y="620"/>
      <point x="161" y="620"/>
      <point x="160" y="620" type="curve" smooth="yes"/>
      <point x="159" y="620"/>
      <point x="157" y="620"/>
      <point x="155" y="620" type="curve"/>
      <point x="155" y="416" type="line"/>
      <point x="315" y="416" type="line"/>
    </contour>
  </outline>
</glyph>
<glyph name="ampersand" format="1">
  <advance width="332"/>
  <unicode hex="0026"/>
  <outline>
    <contour>
      <point x="330" y="309" type="line"/>
      <point x="315" y="309" type="line"/>
      <point x="315" y="17" type="line"/>
      <point x="268" y="2"/>
      <point x="212" y="-5"/>
      <point x="160" y="-5" type="curve" smooth="yes"/>
      <point x="108" y="-5"/>
      <point x="52" y="2"/>
      <point x="5" y="17" type="curve"/>
      <point x="5" y="366" type="line"/>
      <point x="17" y="368"/>
      <point x="54" y="372"/>
      <point x="79" y="373" type="curve"/>
      <point x="54" y="374"/>
      <point x="17" y="378"/>
      <point x="5" y="379" type="curve"/>
      <point x="5" y="703" type="line"/>
      <point x="52" y="718"/>
      <point x="108" y="725"/>
      <point x="160" y="725" type="curve" smooth="yes"/>
      <point x="212" y="725"/>
      <point x="268" y="718"/>
      <point x="315" y="703" type="curve"/>
      <point x="315" y="430" type="line"/>
      <point x="165" y="430" type="line"/>
      <point x="165" y="620" type="line"/>
      <point x="164" y="620"/>
      <point x="161" y="620"/>
      <point x="160" y="620" type="curve" smooth="yes"/>
      <point x="159" y="620"/>
      <point x="156" y="620"/>
      <point x="155" y="620" type="curve"/>
      <point x="155" y="421" type="line"/>
      <point x="157" y="421"/>
      <point x="163" y="421"/>
      <point x="165" y="421" type="curve" smooth="yes"/>
      <point x="330" y="421" type="line"/>
    </contour>
    <contour>
      <point x="165" y="91" type="curve"/>
      <point x="165" y="322" type="line"/>
      <point x="164" y="322"/>
      <point x="161" y="322"/>
      <point x="160" y="322" type="curve" smooth="yes"/>
      <point x="159" y="322"/>
      <point x="156" y="322"/>
      <point x="155" y="322" type="curve"/>
      <point x="155" y="91" type="line"/>
      <point x="156" y="91"/>
      <point x="159" y="91"/>
      <point x="160" y="91" type="curve" smooth="yes"/>
      <point x="161" y="91"/>
      <point x="164" y="91"/>
    </contour>
  </outline>
</glyph>
<glyph name="quotesingle" format="1">
  <advance width="148"/>
  <unicode hex="0027"/>
  <outline>
    <contour>
      <point x="143" y="398" type="line"/>
      <point x="5" y="398" type="line"/>
      <point x="5" y="720" type="line"/>
      <point x="143" y="720" type="line"/>
    </contour>
  </outline>
</glyph>
<glyph name="parenleft" format="1">
  <advance width="182"/>
  <unicode hex="0028"/>
  <outline>
    <contour>
      <point x="179" y="0" type="line"/>
      <point x="95" y="0"/>
      <point x="61" y="4"/>
      <point x="5" y="22" type="curve"/>
      <point x="5" y="698" type="line"/>
      <point x="61" y="716"/>
      <point x="95" y="720"/>
      <point x="179" y="720" type="curve"/>
      <point x="179" y="591" type="line"/>
      <point x="168" y="591"/>
      <point x="157" y="591"/>
      <point x="149" y="591" type="curve"/>
      <point x="149" y="129" type="line"/>
      <point x="157" y="129"/>
      <point x="168" y="129"/>
      <point x="179" y="129" type="curve"/>
    </contour>
  </outline>
</glyph>
<glyph name="parenright" format="1">
  <advance width="182"/>
  <unicode hex="0029"/>
  <outline>
    <contour>
      <point x="177" y="22" type="line"/>
      <point x="121" y="4"/>
      <point x="87" y="0"/>
      <point x="3" y="0" type="curve"/>
      <point x="3" y="129" type="line"/>
      <point x="14" y="129"/>
      <point x="25" y="129"/>
      <point x="33" y="129" type="curve"/>
      <point x="33" y="591" type="line"/>
      <point x="25" y="591"/>
      <point x="14" y="591"/>
      <point x="3" y="591" type="curve"/>
      <point x="3" y="720" type="line"/>
      <point x="87" y="720"/>
      <point x="121" y="716"/>
      <point x="177" y="698" type="curve"/>
    </contour>
  </outline>
</glyph>
<glyph name="asterisk" format="1">
  <advance width="399"/>
  <unicode hex="002A"/>
  <outline>
    <contour>
      <point x="394" y="205" type="line"/>
      <point x="271" y="205" type="line"/>
      <point x="271" y="382" type="line"/>
      <point x="269" y="382"/>
      <point x="263" y="382"/>
      <point x="261" y="382" type="curve"/>
      <point x="261" y="135" type="line"/>
      <point x="138" y="135" type="line"/>
      <point x="138" y="382" type="line"/>
      <point x="136" y="382"/>
      <point x="130" y="382"/>
      <point x="128" y="382" type="curve"/>
      <point x="128" y="205" type="line"/>
      <point x="5" y="205" type="line"/>
      <point x="5" y="425" type="line"/>
      <point x="15" y="426"/>
      <point x="46" y="429"/>
      <point x="67" y="430" type="curve"/>
      <point x="46" y="431"/>
      <point x="15" y="434"/>
      <point x="5" y="435" type="curve"/>
      <point x="5" y="655" type="line"/>
      <point x="128" y="655" type="line"/>
      <point x="128" y="478" type="line"/>
      <point x="130" y="478"/>
      <point x="136" y="478"/>
      <point x="138" y="478" type="curve"/>
      <point x="138" y="720" type="line"/>
      <point x="261" y="720" type="line"/>
      <point x="261" y="478" type="line"/>
      <point x="263" y="478"/>
      <point x="269" y="478"/>
      <point x="271" y="478" type="curve"/>
      <point x="271" y="655" type="line"/>
      <point x="394" y="655" type="line"/>
      <point x="394" y="436" type="line"/>
      <point x="384" y="435"/>
      <point x="353" y="432"/>
      <point x="332" y="431" type="curve"/>
      <point x="353" y="429"/>
      <point x="384" y="426"/>
      <point x="394" y="425" type="curve"/>
    </contour>
  </outline>
</glyph>
<glyph name="plus" format="1">
  <advance width="213"/>
  <unicode hex="002B"/>
  <outline>
    <contour>
      <point x="210" y="313" type="line"/>
      <point x="168" y="313" type="line"/>
      <point x="168" y="253" type="line"/>
      <point x="44" y="253" type="line"/>
      <point x="44" y="313" type="line"/>
      <point x="3" y="313" type="line"/>
      <point x="3" y="430" type="line"/>
      <point x="44" y="430" type="line"/>
      <point x="44" y="490" type="line"/>
      <point x="168" y="490" type="line"/>
      <point x="168" y="430" type="line"/>
      <point x="210" y="430" type="line"/>
    </contour>
  </outline>
</glyph>
<glyph name="comma" format="1">
  <advance width="148"/>
  <unicode hex="002C"/>
  <outline>
    <contour>
      <point x="147" y="141" type="line"/>
      <point x="138" y="-39" type="line"/>
      <point x="0" y="-39" type="line"/>
      <point x="9" y="141" type="line"/>
    </contour>
  </outline>
</glyph>
<glyph name="hyphen" format="1">
  <advance width="147"/>
  <unicode hex="002D"/>
  <unicode hex="2010"/>
  <unicode hex="2011"/>
  <outline>
    <contour>
      <point x="144" y="243" type="line"/>
      <point x="3" y="243" type="line"/>
      <point x="3" y="373" type="line"/>
      <point x="144" y="373" type="line"/>
    </contour>
  </outline>
</glyph>
<glyph name="period" format="1">
  <advance width="148"/>
  <unicode hex="002E"/>
  <outline>
    <contour>
      <point x="143" y="0" type="line"/>
      <point x="5" y="0" type="line"/>
      <point x="5" y="141" type="line"/>
      <point x="143" y="141" type="line"/>
    </contour>
  </outline>
</glyph>
<glyph name="slash" format="1">
  <advance width="222"/>
  <unicode hex="002F"/>
  <outline>
    <contour>
      <point x="222" y="720" type="line"/>
      <point x="157" y="0" type="line"/>
      <point x="0" y="0" type="line"/>
      <point x="65" y="720" type="line"/>
    </contour>
  </outline>
</glyph>
<glyph name="one" format="1">
  <advance width="195"/>
  <unicode hex="0031"/>
  <outline>
    <contour>
      <point x="191" y="0" type="line"/>
      <point x="5" y="0" type="line"/>
      <point x="5" y="129" type="line"/>
      <point x="23" y="129" type="line"/>
      <point x="23" y="591" type="line"/>
      <point x="5" y="591" type="line"/>
      <point x="5" y="720" type="line"/>
      <point x="173" y="720" type="line"/>
      <point x="173" y="129" type="line"/>
      <point x="191" y="129" type="line"/>
    </contour>
  </outline>
</glyph>
<glyph name="two" format="1">
  <advance width="320"/>
  <unicode hex="0032"/>
  <outline>
    <contour>
      <point x="315" y="0" type="line"/>
      <point x="5" y="0" type="line"/>
      <point x="5" y="129" type="line"/>
      <point x="165" y="424" type="line"/>
      <point x="165" y="620" type="line"/>
      <point x="164" y="620"/>
      <point x="161" y="620"/>
      <point x="160" y="620" type="curve" smooth="yes"/>
      <point x="159" y="620"/>
      <point x="156" y="620"/>
      <point x="155" y="620" type="curve"/>
      <point x="155" y="424" type="line"/>
      <point x="5" y="424" type="line"/>
      <point x="5" y="703" type="line"/>
      <point x="52" y="718"/>
      <point x="108" y="725"/>
      <point x="160" y="725" type="curve" smooth="yes"/>
      <point x="212" y="725"/>
      <point x="268" y="718"/>
      <point x="315" y="703" type="curve"/>
      <point x="315" y="363" type="line"/>
      <point x="187" y="129" type="line"/>
      <point x="187" y="129" type="line"/>
      <point x="315" y="129" type="line"/>
    </contour>
  </outline>
</glyph>
<glyph name="three" format="1">
  <advance width="320"/>
  <unicode hex="0033"/>
  <outline>
    <contour>
      <point x="315" y="17" type="line"/>
      <point x="268" y="2"/>
      <point x="212" y="-5"/>
      <point x="160" y="-5" type="curve" smooth="yes"/>
      <point x="108" y="-5"/>
      <point x="52" y="2"/>
      <point x="5" y="17" type="curve"/>
      <point x="5" y="298" type="line"/>
      <point x="155" y="298" type="line"/>
      <point x="155" y="103" type="line"/>
      <point x="156" y="103"/>
      <point x="159" y="103"/>
      <point x="160" y="103" type="curve" smooth="yes"/>
      <point x="161" y="103"/>
      <point x="164" y="103"/>
      <point x="165" y="103" type="curve"/>
      <point x="165" y="307" type="line"/>
      <point x="163" y="307"/>
      <point x="157" y="307"/>
      <point x="155" y="307" type="curve" smooth="yes"/>
      <point x="17" y="307" type="line"/>
      <point x="17" y="423" type="line"/>
      <point x="155" y="423" type="line" smooth="yes"/>
      <point x="157" y="423"/>
      <point x="163" y="423"/>
      <point x="165" y="423" type="curve"/>
      <point x="165" y="620" type="line"/>
      <point x="164" y="620"/>
      <point x="161" y="620"/>
      <point x="160" y="620" type="curve" smooth="yes"/>
      <point x="159" y="620"/>
      <point x="156" y="620"/>
      <point x="155" y="620" type="curve"/>
      <point x="155" y="432" type="line"/>
      <point x="5" y="432" type="line"/>
      <point x="5" y="703" type="line"/>
      <point x="52" y="718"/>
      <point x="108" y="725"/>
      <point x="160" y="725" type="curve" smooth="yes"/>
      <point x="212" y="725"/>
      <point x="268" y="718"/>
      <point x="315" y="703" type="curve"/>
      <point x="315" y="378" type="line"/>
      <point x="305" y="377"/>
      <point x="274" y="374"/>
      <point x="253" y="373" type="curve"/>
      <point x="274" y="372"/>
      <point x="305" y="369"/>
      <point x="315" y="367" type="curve"/>
    </contour>
  </outline>
</glyph>
<glyph name="four" format="1">
  <advance width="320"/>
  <unicode hex="0034"/>
  <outline>
    <contour>
      <point x="315" y="0" type="line"/>
      <point x="165" y="0" type="line"/>
      <point x="165" y="260" type="line"/>
      <point x="5" y="260" type="line"/>
      <point x="5" y="720" type="line"/>
      <point x="155" y="720" type="line"/>
      <point x="155" y="365" type="line"/>
      <point x="165" y="365" type="line"/>
      <point x="165" y="720" type="line"/>
      <point x="315" y="720" type="line"/>
    </contour>
  </outline>
</glyph>
<glyph name="five" format="1">
  <advance width="320"/>
  <unicode hex="0035"/>
  <outline>
    <contour>
      <point x="315" y="17" type="line"/>
      <point x="268" y="2"/>
      <point x="212" y="-5"/>
      <point x="160" y="-5" type="curve" smooth="yes"/>
      <point x="108" y="-5"/>
      <point x="52" y="2"/>
      <point x="5" y="17" type="curve"/>
      <point x="5" y="294" type="line"/>
      <point x="155" y="294" type="line"/>
      <point x="155" y="100" type="line"/>
      <point x="156" y="100"/>
      <point x="159" y="100"/>
      <point x="160" y="100" type="curve" smooth="yes"/>
      <point x="161" y="100"/>
      <point x="164" y="100"/>
      <point x="165" y="100" type="curve"/>
      <point x="165" y="303" type="line"/>
      <point x="163" y="303"/>
      <point x="157" y="303"/>
      <point x="155" y="303" type="curve" smooth="yes"/>
      <point x="5" y="303" type="line"/>
      <point x="5" y="720" type="line"/>
      <point x="315" y="720" type="line"/>
      <point x="315" y="591" type="line"/>
      <point x="140" y="591" type="line"/>
      <point x="140" y="440" type="line"/>
      <point x="144" y="440"/>
      <point x="150" y="440"/>
      <point x="158" y="440" type="curve" smooth="yes"/>
      <point x="208" y="440"/>
      <point x="265" y="433"/>
      <point x="315" y="413" type="curve"/>
    </contour>
  </outline>
</glyph>
<glyph name="six" format="1">
  <advance width="320"/>
  <unicode hex="0036"/>
  <outline>
    <contour>
      <point x="315" y="12" type="line"/>
      <point x="268" y="-3"/>
      <point x="212" y="-10"/>
      <point x="160" y="-10" type="curve" smooth="yes"/>
      <point x="108" y="-10"/>
      <point x="52" y="-3"/>
      <point x="5" y="12" type="curve"/>
      <point x="5" y="703" type="line"/>
      <point x="52" y="718"/>
      <point x="108" y="725"/>
      <point x="160" y="725" type="curve" smooth="yes"/>
      <point x="212" y="725"/>
      <point x="268" y="718"/>
      <point x="315" y="703" type="curve"/>
      <point x="315" y="426" type="line"/>
      <point x="165" y="426" type="line"/>
      <point x="165" y="617" type="line"/>
      <point x="164" y="617"/>
      <point x="161" y="617"/>
      <point x="160" y="617" type="curve" smooth="yes"/>
      <point x="159" y="617"/>
      <point x="156" y="617"/>
      <point x="155" y="617" type="curve"/>
      <point x="155" y="418" type="line"/>
      <point x="156" y="418"/>
      <point x="162" y="418"/>
      <point x="165" y="418" type="curve" smooth="yes"/>
      <point x="214" y="418"/>
      <point x="265" y="416"/>
      <point x="315" y="409" type="curve"/>
    </contour>
    <contour>
      <point x="165" y="86" type="curve"/>
      <point x="165" y="328" type="line"/>
      <point x="164" y="328"/>
      <point x="161" y="328"/>
      <point x="160" y="328" type="curve" smooth="yes"/>
      <point x="159" y="328"/>
      <point x="156" y="328"/>
      <point x="155" y="328" type="curve"/>
      <point x="155" y="86" type="line"/>
      <point x="156" y="86"/>
      <point x="159" y="86"/>
      <point x="160" y="86" type="curve" smooth="yes"/>
      <point x="161" y="86"/>
      <point x="164" y="86"/>
    </contour>
  </outline>
</glyph>
<glyph name="seven" format="1">
  <advance width="274"/>
  <unicode hex="0037"/>
  <outline>
    <contour>
      <point x="271" y="606" type="line"/>
      <point x="174" y="0" type="line"/>
      <point x="13" y="0" type="line"/>
      <point x="105" y="591" type="line"/>
      <point x="3" y="591" type="line"/>
      <point x="3" y="720" type="line"/>
      <point x="271" y="720" type="line"/>
    </contour>
  </outline>
</glyph>
<glyph name="eight" format="1">
  <advance width="320"/>
  <unicode hex="0038"/>
  <outline>
    <contour>
      <point x="315" y="17" type="line"/>
      <point x="268" y="2"/>
      <point x="212" y="-5"/>
      <point x="160" y="-5" type="curve" smooth="yes"/>
      <point x="108" y="-5"/>
      <point x="52" y="2"/>
      <point x="5" y="17" type="curve"/>
      <point x="5" y="366" type="line"/>
      <point x="17" y="368"/>
      <point x="54" y="372"/>
      <point x="79" y="373" type="curve"/>
      <point x="54" y="374"/>
      <point x="17" y="378"/>
      <point x="5" y="379" type="curve"/>
      <point x="5" y="703" type="line"/>
      <point x="52" y="718"/>
      <point x="108" y="725"/>
      <point x="160" y="725" type="curve" smooth="yes"/>
      <point x="212" y="725"/>
      <point x="268" y="718"/>
      <point x="315" y="703" type="curve"/>
      <point x="315" y="379" type="line"/>
      <point x="303" y="378"/>
      <point x="266" y="374"/>
      <point x="241" y="373" type="curve"/>
      <point x="266" y="372"/>
      <point x="303" y="368"/>
      <point x="315" y="366" type="curve"/>
    </contour>
    <contour>
      <point x="165" y="408" type="curve"/>
      <point x="165" y="629" type="line"/>
      <point x="164" y="629"/>
      <point x="161" y="629"/>
      <point x="160" y="629" type="curve" smooth="yes"/>
      <point x="159" y="629"/>
      <point x="156" y="629"/>
      <point x="155" y="629" type="curve"/>
      <point x="155" y="408" type="line"/>
      <point x="156" y="408"/>
      <point x="159" y="408"/>
      <point x="160" y="408" type="curve" smooth="yes"/>
      <point x="161" y="408"/>
      <point x="164" y="408"/>
    </contour>
    <contour>
      <point x="165" y="91" type="curve"/>
      <point x="165" y="322" type="line"/>
      <point x="164" y="322"/>
      <point x="161" y="322"/>
      <point x="160" y="322" type="curve" smooth="yes"/>
      <point x="159" y="322"/>
      <point x="156" y="322"/>
      <point x="155" y="322" type="curve"/>
      <point x="155" y="91" type="line"/>
      <point x="156" y="91"/>
      <point x="159" y="91"/>
      <point x="160" y="91" type="curve" smooth="yes"/>
      <point x="161" y="91"/>
      <point x="164" y="91"/>
    </contour>
  </outline>
</glyph>
<glyph name="nine" format="1">
  <advance width="320"/>
  <unicode hex="0039"/>
  <outline>
    <contour>
      <point x="315" y="17" type="line"/>
      <point x="268" y="2"/>
      <point x="212" y="-5"/>
      <point x="160" y="-5" type="curve" smooth="yes"/>
      <point x="108" y="-5"/>
      <point x="52" y="2"/>
      <point x="5" y="17" type="curve"/>
      <point x="5" y="294" type="line"/>
      <point x="155" y="294" type="line"/>
      <point x="155" y="103" type="line"/>
      <point x="156" y="103"/>
      <point x="159" y="103"/>
      <point x="160" y="103" type="curve" smooth="yes"/>
      <point x="161" y="103"/>
      <point x="164" y="103"/>
      <point x="165" y="103" type="curve"/>
      <point x="165" y="302" type="line"/>
      <point x="164" y="302"/>
      <point x="158" y="302"/>
      <point x="155" y="302" type="curve" smooth="yes"/>
      <point x="106" y="302"/>
      <point x="55" y="304"/>
      <point x="5" y="311" type="curve"/>
      <point x="5" y="703" type="line"/>
      <point x="52" y="718"/>
      <point x="108" y="725"/>
      <point x="160" y="725" type="curve" smooth="yes"/>
      <point x="212" y="725"/>
      <point x="268" y="718"/>
      <point x="315" y="703" type="curve"/>
    </contour>
    <contour>
      <point x="165" y="392" type="curve"/>
      <point x="165" y="629" type="line"/>
      <point x="164" y="629"/>
      <point x="161" y="629"/>
      <point x="160" y="629" type="curve" smooth="yes"/>
      <point x="159" y="629"/>
      <point x="156" y="629"/>
      <point x="155" y="629" type="curve"/>
      <point x="155" y="392" type="line"/>
      <point x="156" y="392"/>
      <point x="159" y="392"/>
      <point x="160" y="392" type="curve" smooth="yes"/>
      <point x="161" y="392"/>
      <point x="164" y="392"/>
    </contour>
  </outline>
</glyph>
<glyph name="colon" format="1">
  <advance width="148"/>
  <unicode hex="003A"/>
  <outline>
    <contour>
      <point x="143" y="339" type="line"/>
      <point x="5" y="339" type="line"/>
      <point x="5" y="480" type="line"/>
      <point x="143" y="480" type="line"/>
    </contour>
    <contour>
      <point x="143" y="0" type="line"/>
      <point x="5" y="0" type="line"/>
      <point x="5" y="141" type="line"/>
      <point x="143" y="141" type="line"/>
    </contour>
  </outline>
</glyph>
<glyph name="semicolon" format="1">
  <advance width="148"/>
  <unicode hex="003B"/>
  <outline>
    <contour>
      <point x="143" y="339" type="line"/>
      <point x="5" y="339" type="line"/>
      <point x="5" y="480" type="line"/>
      <point x="143" y="480" type="line"/>
    </contour>
    <contour>
      <point x="147" y="141" type="line"/>
      <point x="138" y="-39" type="line"/>
      <point x="0" y="-39" type="line"/>
      <point x="9" y="141" type="line"/>
    </contour>
  </outline>
</glyph>
<glyph name="less" format="1">
  <advance width="160"/>
  <unicode hex="003C"/>
  <outline>
    <contour>
      <point x="157" y="135" type="line"/>
      <point x="3" y="279" type="line"/>
      <point x="3" y="441" type="line"/>
      <point x="157" y="585" type="line"/>
      <point x="157" y="410" type="line"/>
      <point x="102" y="360" type="line"/>
      <point x="157" y="311" type="line"/>
    </contour>
  </outline>
</glyph>
<glyph name="equal" format="1">
  <advance width="193"/>
  <unicode hex="003D"/>
  <outline>
    <contour>
      <point x="188" y="374" type="line"/>
      <point x="5" y="374" type="line"/>
      <point x="5" y="503" type="line"/>
      <point x="188" y="503" type="line"/>
    </contour>
    <contour>
      <point x="188" y="239" type="line"/>
      <point x="5" y="239" type="line"/>
      <point x="5" y="368" type="line"/>
      <point x="188" y="368" type="line"/>
    </contour>
  </outline>
</glyph>
<glyph name="greater" format="1">
  <advance width="160"/>
  <unicode hex="003E"/>
  <outline>
    <contour>
      <point x="158" y="279" type="line"/>
      <point x="3" y="135" type="line"/>
      <point x="3" y="311" type="line"/>
      <point x="58" y="360" type="line"/>
      <point x="3" y="410" type="line"/>
      <point x="3" y="585" type="line"/>
      <point x="158" y="441" type="line"/>
    </contour>
  </outline>
</glyph>
<glyph name="question" format="1">
  <advance width="318"/>
  <unicode hex="003F"/>
  <outline>
    <contour>
      <point x="314" y="292" type="line"/>
      <point x="228" y="292" type="line"/>
      <point x="228" y="151" type="line"/>
      <point x="84" y="151" type="line"/>
      <point x="84" y="414" type="line"/>
      <point x="164" y="414" type="line"/>
      <point x="164" y="620" type="line"/>
      <point x="163" y="620"/>
      <point x="160" y="620"/>
      <point x="159" y="620" type="curve" smooth="yes"/>
      <point x="158" y="620"/>
      <point x="155" y="620"/>
      <point x="154" y="620" type="curve"/>
      <point x="154" y="423" type="line"/>
      <point x="4" y="423" type="line"/>
      <point x="4" y="703" type="line"/>
      <point x="51" y="718"/>
      <point x="107" y="725"/>
      <point x="159" y="725" type="curve" smooth="yes"/>
      <point x="211" y="725"/>
      <point x="267" y="717"/>
      <point x="314" y="702" type="curve"/>
    </contour>
    <contour>
      <point x="228" y="0" type="line"/>
      <point x="84" y="0" type="line"/>
      <point x="84" y="141" type="line"/>
      <point x="228" y="141" type="line"/>
    </contour>
  </outline>
</glyph>
<glyph name="at" format="1">
  <advance width="388"/>
  <unicode hex="0040"/>
  <outline>
    <contour>
      <point x="383" y="22" type="line"/>
      <point x="325" y="2"/>
      <point x="256" y="-5"/>
      <point x="194" y="-5" type="curve" smooth="yes"/>
      <point x="132" y="-5"/>
      <point x="63" y="2"/>
      <point x="5" y="22" type="curve"/>
      <point x="5" y="698" type="line"/>
      <point x="63" y="718"/>
      <point x="132" y="725"/>
      <point x="194" y="725" type="curve" smooth="yes"/>
      <point x="256" y="725"/>
      <point x="325" y="718"/>
      <point x="383" y="698" type="curve"/>
      <point x="383" y="325" type="line"/>
      <point x="276" y="325" type="line"/>
      <point x="276" y="106" type="line"/>
      <point x="251" y="101"/>
      <point x="226" y="98"/>
      <point x="194" y="98" type="curve" smooth="yes"/>
      <point x="162" y="98"/>
      <point x="137" y="101"/>
      <point x="113" y="106" type="curve"/>
      <point x="113" y="614" type="line"/>
      <point x="137" y="619"/>
      <point x="162" y="622"/>
      <point x="194" y="622" type="curve" smooth="yes"/>
      <point x="226" y="622"/>
      <point x="251" y="619"/>
      <point x="276" y="614" type="curve"/>
      <point x="276" y="412" type="line"/>
      <point x="286" y="412" type="line"/>
      <point x="286" y="622" type="line"/>
      <point x="259" y="628"/>
      <point x="226" y="631"/>
      <point x="194" y="631" type="curve" smooth="yes"/>
      <point x="162" y="631"/>
      <point x="129" y="628"/>
      <point x="103" y="622" type="curve"/>
      <point x="103" y="98" type="line"/>
      <point x="129" y="92"/>
      <point x="162" y="89"/>
      <point x="194" y="89" type="curve" smooth="yes"/>
      <point x="226" y="89"/>
      <point x="259" y="92"/>
      <point x="286" y="98" type="curve"/>
      <point x="286" y="316" type="line"/>
      <point x="383" y="316" type="line"/>
    </contour>
    <contour>
      <point x="199" y="172" type="curve"/>
      <point x="199" y="551" type="line"/>
      <point x="198" y="551"/>
      <point x="195" y="551"/>
      <point x="194" y="551" type="curve" smooth="yes"/>
      <point x="193" y="551"/>
      <point x="190" y="551"/>
      <point x="189" y="551" type="curve"/>
      <point x="189" y="172" type="line"/>
      <point x="190" y="172"/>
      <point x="193" y="172"/>
      <point x="194" y="172" type="curve" smooth="yes"/>
      <point x="195" y="172"/>
      <point x="198" y="172"/>
    </contour>
  </outline>
</glyph>
<glyph name="A" format="1">
  <advance width="320"/>
  <unicode hex="0041"/>
  <outline>
    <contour>
      <point x="315" y="0" type="line"/>
      <point x="165" y="0" type="line"/>
      <point x="165" y="260" type="line"/>
      <point x="155" y="260" type="line"/>
      <point x="155" y="0" type="line"/>
      <point x="5" y="0" type="line"/>
      <point x="5" y="703" type="line"/>
      <point x="52" y="718"/>
      <point x="108" y="725"/>
      <point x="160" y="725" type="curve" smooth="yes"/>
      <point x="212" y="725"/>
      <point x="268" y="718"/>
      <point x="315" y="703" type="curve"/>
    </contour>
    <contour>
      <point x="165" y="359" type="line"/>
      <point x="165" y="626" type="line"/>
      <point x="164" y="626"/>
      <point x="161" y="626"/>
      <point x="160" y="626" type="curve" smooth="yes"/>
      <point x="159" y="626"/>
      <point x="156" y="626"/>
      <point x="155" y="626" type="curve"/>
      <point x="155" y="359" type="line"/>
    </contour>
  </outline>
</glyph>
<glyph name="B" format="1">
  <advance width="320"/>
  <unicode hex="0042"/>
  <outline>
    <contour>
      <point x="315" y="22" type="line"/>
      <point x="272" y="8"/>
      <point x="220" y="0"/>
      <point x="162" y="0" type="curve" smooth="yes"/>
      <point x="5" y="0" type="line"/>
      <point x="5" y="720" type="line"/>
      <point x="162" y="720" type="line" smooth="yes"/>
      <point x="220" y="720"/>
      <point x="272" y="712"/>
      <point x="315" y="698" type="curve"/>
      <point x="315" y="379" type="line"/>
      <point x="303" y="378"/>
      <point x="266" y="374"/>
      <point x="241" y="373" type="curve"/>
      <point x="266" y="372"/>
      <point x="303" y="368"/>
      <point x="315" y="366" type="curve"/>
    </contour>
    <contour>
      <point x="165" y="408" type="curve"/>
      <point x="165" y="630" type="line"/>
      <point x="164" y="630"/>
      <point x="161" y="630"/>
      <point x="160" y="630" type="curve" smooth="yes"/>
      <point x="159" y="630"/>
      <point x="156" y="630"/>
      <point x="155" y="630" type="curve"/>
      <point x="155" y="408" type="line"/>
      <point x="156" y="408"/>
      <point x="159" y="408"/>
      <point x="160" y="408" type="curve" smooth="yes"/>
      <point x="161" y="408"/>
      <point x="164" y="408"/>
    </contour>
    <contour>
      <point x="165" y="90" type="curve"/>
      <point x="165" y="322" type="line"/>
      <point x="164" y="322"/>
      <point x="161" y="322"/>
      <point x="160" y="322" type="curve" smooth="yes"/>
      <point x="159" y="322"/>
      <point x="156" y="322"/>
      <point x="155" y="322" type="curve"/>
      <point x="155" y="90" type="line"/>
      <point x="156" y="90"/>
      <point x="159" y="90"/>
      <point x="160" y="90" type="curve" smooth="yes"/>
      <point x="161" y="90"/>
      <point x="164" y="90"/>
    </contour>
  </outline>
</glyph>
<glyph name="D" format="1">
  <advance width="320"/>
  <unicode hex="0044"/>
  <outline>
    <contour>
      <point x="315" y="27" type="line"/>
      <point x="265" y="7"/>
      <point x="212" y="0"/>
      <point x="162" y="0" type="curve" smooth="yes"/>
      <point x="5" y="0" type="line"/>
      <point x="5" y="720" type="line"/>
      <point x="162" y="720" type="line" smooth="yes"/>
      <point x="212" y="720"/>
      <point x="265" y="713"/>
      <point x="315" y="693" type="curve"/>
    </contour>
    <contour>
      <point x="165" y="99" type="curve"/>
      <point x="165" y="621" type="line"/>
      <point x="164" y="621"/>
      <point x="161" y="621"/>
      <point x="160" y="621" type="curve" smooth="yes"/>
      <point x="159" y="621"/>
      <point x="156" y="621"/>
      <point x="155" y="621" type="curve"/>
      <point x="155" y="99" type="line"/>
      <point x="156" y="99"/>
      <point x="159" y="99"/>
      <point x="160" y="99" type="curve" smooth="yes"/>
      <point x="161" y="99"/>
      <point x="164" y="99"/>
    </contour>
  </outline>
</glyph>
<glyph name="E" format="1">
  <advance width="320"/>
  <unicode hex="0045"/>
  <outline>
    <contour>
      <point x="315" y="17" type="line"/>
      <point x="268" y="2"/>
      <point x="212" y="-5"/>
      <point x="160" y="-5" type="curve" smooth="yes"/>
      <point x="108" y="-5"/>
      <point x="52" y="2"/>
      <point x="5" y="17" type="curve"/>
      <point x="5" y="703" type="line"/>
      <point x="52" y="718"/>
      <point x="108" y="725"/>
      <point x="160" y="725" type="curve" smooth="yes"/>
      <point x="212" y="725"/>
      <point x="268" y="718"/>
      <point x="315" y="703" type="curve"/>
      <point x="315" y="432" type="line"/>
      <point x="165" y="432" type="line"/>
      <point x="165" y="620" type="line"/>
      <point x="164" y="620"/>
      <point x="161" y="620"/>
      <point x="160" y="620" type="curve" smooth="yes"/>
      <point x="159" y="620"/>
      <point x="157" y="620"/>
      <point x="155" y="620" type="curve"/>
      <point x="155" y="423" type="line"/>
      <point x="303" y="423" type="line"/>
      <point x="303" y="307" type="line"/>
      <point x="155" y="307" type="line"/>
      <point x="155" y="100" type="line"/>
      <point x="156" y="100"/>
      <point x="159" y="100"/>
      <point x="160" y="100" type="curve" smooth="yes"/>
      <point x="161" y="100"/>
      <point x="164" y="100"/>
      <point x="165" y="100" type="curve"/>
      <point x="165" y="298" type="line"/>
      <point x="315" y="298" type="line"/>
    </contour>
  </outline>
</glyph>
<glyph name="F" format="1">
  <advance width="320"/>
  <unicode hex="0046"/>
  <outline>
    <contour>
      <point x="315" y="412" type="line"/>
      <point x="165" y="412" type="line"/>
      <point x="165" y="620" type="line"/>
      <point x="164" y="620"/>
      <point x="161" y="620"/>
      <point x="160" y="620" type="curve" smooth="yes"/>
      <point x="159" y="620"/>
      <point x="157" y="620"/>
      <point x="155" y="620" type="curve"/>
      <point x="155" y="403" type="line"/>
      <point x="303" y="403" type="line"/>
      <point x="303" y="282" type="line"/>
      <point x="155" y="282" type="line"/>
      <point x="155" y="0" type="line"/>
      <point x="5" y="0" type="line"/>
      <point x="5" y="703" type="line"/>
      <point x="52" y="718"/>
      <point x="108" y="725"/>
      <point x="160" y="725" type="curve" smooth="yes"/>
      <point x="212" y="725"/>
      <point x="268" y="718"/>
      <point x="315" y="703" type="curve"/>
    </contour>
  </outline>
</glyph>
<glyph name="H" format="1">
  <advance width="320"/>
  <unicode hex="0048"/>
  <outline>
    <contour>
      <point x="315" y="0" type="line"/>
      <point x="165" y="0" type="line"/>
      <point x="165" y="319" type="line"/>
      <point x="155" y="319" type="line"/>
      <point x="155" y="0" type="line"/>
      <point x="5" y="0" type="line"/>
      <point x="5" y="720" type="line"/>
      <point x="155" y="720" type="line"/>
      <point x="155" y="424" type="line"/>
      <point x="165" y="424" type="line"/>
      <point x="165" y="720" type="line"/>
      <point x="315" y="720" type="line"/>
    </contour>
  </outline>
</glyph>
<glyph name="I" format="1">
  <advance width="160"/>
  <unicode hex="0049"/>
  <outline>
    <contour>
      <point x="155" y="0" type="line"/>
      <point x="5" y="0" type="line"/>
      <point x="5" y="720" type="line"/>
      <point x="155" y="720" type="line"/>
    </contour>
  </outline>
</glyph>
<glyph name="J" format="1">
  <advance width="212"/>
  <unicode hex="004A"/>
  <outline>
    <contour>
      <point x="207" y="22" type="line"/>
      <point x="164" y="8"/>
      <point x="111" y="0"/>
      <point x="54" y="0" type="curve" smooth="yes"/>
      <point x="3" y="0" type="line"/>
      <point x="3" y="139" type="line"/>
      <point x="41" y="139" type="line" smooth="yes"/>
      <point x="47" y="139"/>
      <point x="54" y="139"/>
      <point x="57" y="139" type="curve"/>
      <point x="57" y="720" type="line"/>
      <point x="207" y="720" type="line"/>
    </contour>
  </outline>
</glyph>
<glyph name="L" format="1">
  <advance width="212"/>
  <unicode hex="004C"/>
  <outline>
    <contour>
      <point x="209" y="0" type="line"/>
      <point x="5" y="0" type="line"/>
      <point x="5" y="720" type="line"/>
      <point x="155" y="720" type="line"/>
      <point x="155" y="139" type="line"/>
      <point x="209" y="139" type="line"/>
    </contour>
  </outline>
</glyph>
<glyph name="M" format="1">
  <advance width="470"/>
  <unicode hex="004D"/>
  <outline>
    <contour>
      <point x="465" y="0" type="line"/>
      <point x="318" y="0" type="line"/>
      <point x="318" y="623" type="line"/>
      <point x="317" y="623"/>
      <point x="311" y="623"/>
      <point x="308" y="623" type="curve"/>
      <point x="308" y="0" type="line"/>
      <point x="162" y="0" type="line"/>
      <point x="162" y="623" type="line"/>
      <point x="159" y="623"/>
      <point x="153" y="623"/>
      <point x="152" y="623" type="curve"/>
      <point x="152" y="0" type="line"/>
      <point x="5" y="0" type="line"/>
      <point x="5" y="701" type="line"/>
      <point x="70" y="721"/>
      <point x="148" y="728"/>
      <point x="235" y="728" type="curve" smooth="yes"/>
      <point x="321" y="728"/>
      <point x="400" y="721"/>
      <point x="465" y="701" type="curve"/>
    </contour>
  </outline>
</glyph>
<glyph name="P" format="1">
  <advance width="320"/>
  <unicode hex="0050"/>
  <outline>
    <contour>
      <point x="315" y="277" type="line"/>
      <point x="272" y="263"/>
      <point x="220" y="255"/>
      <point x="162" y="255" type="curve" smooth="yes"/>
      <point x="155" y="255" type="line"/>
      <point x="155" y="0" type="line"/>
      <point x="5" y="0" type="line"/>
      <point x="5" y="720" type="line"/>
      <point x="162" y="720" type="line" smooth="yes"/>
      <point x="220" y="720"/>
      <point x="272" y="712"/>
      <point x="315" y="698" type="curve"/>
    </contour>
    <contour>
      <point x="165" y="351" type="curve"/>
      <point x="165" y="624" type="line"/>
      <point x="164" y="624"/>
      <point x="161" y="624"/>
      <point x="160" y="624" type="curve" smooth="yes"/>
      <point x="159" y="624"/>
      <point x="156" y="624"/>
      <point x="155" y="624" type="curve"/>
      <point x="155" y="351" type="line"/>
      <point x="156" y="351"/>
      <point x="159" y="351"/>
      <point x="160" y="351" type="curve" smooth="yes"/>
      <point x="161" y="351"/>
      <point x="164" y="351"/>
    </contour>
  </outline>
</glyph>
<glyph name="Q" format="1">
  <advance width="320"/>
  <unicode hex="0051"/>
  <outline>
    <contour>
      <point x="315" y="17" type="line"/>
      <point x="290" y="9"/>
      <point x="262" y="3"/>
      <point x="235" y="0" type="curve"/>
      <point x="235" y="-49" type="line"/>
      <point x="85" y="-49" type="line"/>
      <point x="85" y="0" type="line"/>
      <point x="58" y="3"/>
      <point x="30" y="9"/>
      <point x="5" y="17" type="curve"/>
      <point x="5" y="703" type="line"/>
      <point x="52" y="718"/>
      <point x="108" y="725"/>
      <point x="160" y="725" type="curve" smooth="yes"/>
      <point x="212" y="725"/>
      <point x="268" y="718"/>
      <point x="315" y="703" type="curve"/>
    </contour>
    <contour>
      <point x="165" y="100" type="curve"/>
      <point x="165" y="620" type="line"/>
      <point x="164" y="620"/>
      <point x="161" y="620"/>
      <point x="160" y="620" type="curve" smooth="yes"/>
      <point x="159" y="620"/>
      <point x="156" y="620"/>
      <point x="155" y="620" type="curve"/>
      <point x="155" y="100" type="line"/>
      <point x="156" y="100"/>
      <point x="159" y="100"/>
      <point x="160" y="100" type="curve" smooth="yes"/>
      <point x="161" y="100"/>
      <point x="164" y="100"/>
    </contour>
  </outline>
</glyph>
<glyph name="R" format="1">
  <advance width="320"/>
  <unicode hex="0052"/>
  <outline>
    <contour>
      <point x="315" y="0" type="line"/>
      <point x="165" y="0" type="line"/>
      <point x="165" y="310" type="line"/>
      <point x="164" y="310"/>
      <point x="161" y="310"/>
      <point x="160" y="310" type="curve" smooth="yes"/>
      <point x="159" y="310"/>
      <point x="156" y="310"/>
      <point x="155" y="310" type="curve"/>
      <point x="155" y="0" type="line"/>
      <point x="5" y="0" type="line"/>
      <point x="5" y="720" type="line"/>
      <point x="162" y="720" type="line" smooth="yes"/>
      <point x="220" y="720"/>
      <point x="272" y="712"/>
      <point x="315" y="698" type="curve"/>
      <point x="315" y="379" type="line"/>
      <point x="303" y="378"/>
      <point x="266" y="374"/>
      <point x="241" y="373" type="curve"/>
      <point x="266" y="372"/>
      <point x="303" y="368"/>
      <point x="315" y="366" type="curve"/>
    </contour>
    <contour>
      <point x="165" y="399" type="curve"/>
      <point x="165" y="630" type="line"/>
      <point x="164" y="630"/>
      <point x="161" y="630"/>
      <point x="160" y="630" type="curve" smooth="yes"/>
      <point x="159" y="630"/>
      <point x="156" y="630"/>
      <point x="155" y="630" type="curve"/>
      <point x="155" y="399" type="line"/>
      <point x="156" y="399"/>
      <point x="159" y="399"/>
      <point x="160" y="399" type="curve" smooth="yes"/>
      <point x="161" y="399"/>
      <point x="164" y="399"/>
    </contour>
  </outline>
</glyph>
<glyph name="S" format="1">
  <advance width="320"/>
  <unicode hex="0053"/>
  <outline>
    <contour>
      <point x="315" y="17" type="line"/>
      <point x="268" y="2"/>
      <point x="212" y="-5"/>
      <point x="160" y="-5" type="curve" smooth="yes"/>
      <point x="108" y="-5"/>
      <point x="52" y="2"/>
      <point x="5" y="17" type="curve"/>
      <point x="5" y="299" type="line"/>
      <point x="155" y="299" type="line"/>
      <point x="155" y="100" type="line"/>
      <point x="156" y="100"/>
      <point x="159" y="100"/>
      <point x="160" y="100" type="curve" smooth="yes"/>
      <point x="161" y="100"/>
      <point x="164" y="100"/>
      <point x="165" y="100" type="curve"/>
      <point x="165" y="308" type="line"/>
      <point x="5" y="308" type="line"/>
      <point x="5" y="703" type="line"/>
      <point x="52" y="718"/>
      <point x="108" y="725"/>
      <point x="160" y="725" type="curve" smooth="yes"/>
      <point x="212" y="725"/>
      <point x="268" y="718"/>
      <point x="315" y="703" type="curve"/>
      <point x="315" y="431" type="line"/>
      <point x="165" y="431" type="line"/>
      <point x="165" y="620" type="line"/>
      <point x="164" y="620"/>
      <point x="161" y="620"/>
      <point x="160" y="620" type="curve" smooth="yes"/>
      <point x="159" y="620"/>
      <point x="157" y="620"/>
      <point x="155" y="620" type="curve"/>
      <point x="155" y="422" type="line"/>
      <point x="315" y="422" type="line"/>
    </contour>
  </outline>
</glyph>
<glyph name="T" format="1">
  <advance width="260"/>
  <unicode hex="0054"/>
  <outline>
    <contour>
      <point x="257" y="591" type="line"/>
      <point x="205" y="591" type="line"/>
      <point x="205" y="0" type="line"/>
      <point x="55" y="0" type="line"/>
      <point x="55" y="591" type="line"/>
      <point x="3" y="591" type="line"/>
      <point x="3" y="720" type="line"/>
      <point x="257" y="720" type="line"/>
    </contour>
  </outline>
</glyph>
<glyph name="U" format="1">
  <advance width="320"/>
  <unicode hex="0055"/>
  <outline>
    <contour>
      <point x="315" y="17" type="line"/>
      <point x="268" y="2"/>
      <point x="212" y="-5"/>
      <point x="160" y="-5" type="curve" smooth="yes"/>
      <point x="108" y="-5"/>
      <point x="52" y="2"/>
      <point x="5" y="17" type="curve"/>
      <point x="5" y="720" type="line"/>
      <point x="155" y="720" type="line"/>
      <point x="155" y="100" type="line"/>
      <point x="156" y="100"/>
      <point x="159" y="100"/>
      <point x="160" y="100" type="curve" smooth="yes"/>
      <point x="161" y="100"/>
      <point x="164" y="100"/>
      <point x="165" y="100" type="curve"/>
      <point x="165" y="720" type="line"/>
      <point x="315" y="720" type="line"/>
    </contour>
  </outline>
</glyph>
<glyph name="V" format="1">
  <advance width="320"/>
  <unicode hex="0056"/>
  <outline>
    <contour>
      <point x="315" y="175" type="line" smooth="yes"/>
      <point x="315" y="97"/>
      <point x="301" y="59"/>
      <point x="240" y="0" type="curve"/>
      <point x="80" y="0" type="line"/>
      <point x="19" y="59"/>
      <point x="5" y="97"/>
      <point x="5" y="175" type="curve" smooth="yes"/>
      <point x="5" y="720" type="line"/>
      <point x="155" y="720" type="line"/>
      <point x="155" y="175" type="line" smooth="yes"/>
      <point x="155" y="119"/>
      <point x="157" y="113"/>
      <point x="160" y="94" type="curve"/>
      <point x="163" y="113"/>
      <point x="165" y="119"/>
      <point x="165" y="175" type="curve" smooth="yes"/>
      <point x="165" y="720" type="line"/>
      <point x="315" y="720" type="line"/>
    </contour>
  </outline>
</glyph>
<glyph name="W" format="1">
  <advance width="470"/>
  <unicode hex="0057"/>
  <outline>
    <contour>
      <point x="465" y="19" type="line"/>
      <point x="400" y="-1"/>
      <point x="321" y="-8"/>
      <point x="235" y="-8" type="curve" smooth="yes"/>
      <point x="148" y="-8"/>
      <point x="70" y="-1"/>
      <point x="5" y="19" type="curve"/>
      <point x="5" y="720" type="line"/>
      <point x="152" y="720" type="line"/>
      <point x="152" y="97" type="line"/>
      <point x="153" y="97"/>
      <point x="159" y="97"/>
      <point x="162" y="97" type="curve"/>
      <point x="162" y="720" type="line"/>
      <point x="308" y="720" type="line"/>
      <point x="308" y="97" type="line"/>
      <point x="311" y="97"/>
      <point x="317" y="97"/>
      <point x="318" y="97" type="curve"/>
      <point x="318" y="720" type="line"/>
      <point x="465" y="720" type="line"/>
    </contour>
  </outline>
</glyph>
<glyph name="X" format="1">
  <advance width="320"/>
  <unicode hex="0058"/>
  <outline>
    <contour>
      <point x="315" y="0" type="line"/>
      <point x="165" y="0" type="line"/>
      <point x="165" y="319" type="line"/>
      <point x="164" y="319"/>
      <point x="161" y="319"/>
      <point x="160" y="319" type="curve" smooth="yes"/>
      <point x="159" y="319"/>
      <point x="156" y="319"/>
      <point x="155" y="319" type="curve"/>
      <point x="155" y="0" type="line"/>
      <point x="5" y="0" type="line"/>
      <point x="5" y="366" type="line"/>
      <point x="17" y="368"/>
      <point x="54" y="372"/>
      <point x="79" y="373" type="curve"/>
      <point x="54" y="374"/>
      <point x="17" y="378"/>
      <point x="5" y="379" type="curve"/>
      <point x="5" y="720" type="line"/>
      <point x="155" y="720" type="line"/>
      <point x="155" y="424" type="line"/>
      <point x="156" y="424"/>
      <point x="159" y="424"/>
      <point x="160" y="424" type="curve" smooth="yes"/>
      <point x="161" y="424"/>
      <point x="164" y="424"/>
      <point x="165" y="424" type="curve"/>
      <point x="165" y="720" type="line"/>
      <point x="315" y="720" type="line"/>
      <point x="315" y="379" type="line"/>
      <point x="303" y="378"/>
      <point x="266" y="374"/>
      <point x="241" y="373" type="curve"/>
      <point x="266" y="372"/>
      <point x="303" y="368"/>
      <point x="315" y="366" type="curve"/>
    </contour>
  </outline>
</glyph>
<glyph name="Y" format="1">
  <advance width="320"/>
  <unicode hex="0059"/>
  <outline>
    <contour>
      <point x="315" y="252" type="line"/>
      <point x="290" y="244"/>
      <point x="262" y="238"/>
      <point x="235" y="235" type="curve"/>
      <point x="235" y="0" type="line"/>
      <point x="85" y="0" type="line"/>
      <point x="85" y="235" type="line"/>
      <point x="58" y="238"/>
      <point x="30" y="244"/>
      <point x="5" y="252" type="curve"/>
      <point x="5" y="720" type="line"/>
      <point x="155" y="720" type="line"/>
      <point x="155" y="335" type="line"/>
      <point x="156" y="335"/>
      <point x="159" y="335"/>
      <point x="160" y="335" type="curve" smooth="yes"/>
      <point x="161" y="335"/>
      <point x="164" y="335"/>
      <point x="165" y="335" type="curve"/>
      <point x="165" y="720" type="line"/>
      <point x="315" y="720" type="line"/>
    </contour>
  </outline>
</glyph>
<glyph name="Z" format="1">
  <advance width="274"/>
  <unicode hex="005A"/>
  <outline>
    <contour>
      <point x="271" y="0" type="line"/>
      <point x="3" y="0" type="line"/>
      <point x="3" y="133" type="line"/>
      <point x="88" y="581" type="line"/>
      <point x="3" y="581" type="line"/>
      <point x="3" y="720" type="line"/>
      <point x="271" y="720" type="line"/>
      <point x="271" y="596" type="line"/>
      <point x="186" y="139" type="line"/>
      <point x="271" y="139" type="line"/>
    </contour>
  </outline>
</glyph>
<glyph name="bracketleft" format="1">
  <advance width="182"/>
  <unicode hex="005B"/>
  <outline>
    <contour>
      <point x="179" y="0" type="line"/>
      <point x="5" y="0" type="line"/>
      <point x="5" y="720" type="line"/>
      <point x="179" y="720" type="line"/>
      <point x="179" y="591" type="line"/>
      <point x="149" y="591" type="line"/>
      <point x="149" y="129" type="line"/>
      <point x="179" y="129" type="line"/>
    </contour>
  </outline>
</glyph>
<glyph name="backslash" format="1">
  <advance width="222"/>
  <unicode hex="005C"/>
  <outline>
    <contour>
      <point x="222" y="0" type="line"/>
      <point x="65" y="0" type="line"/>
      <point x="0" y="720" type="line"/>
      <point x="157" y="720" type="line"/>
    </contour>
  </outline>
</glyph>
<glyph name="bracketright" format="1">
  <advance width="182"/>
  <unicode hex="005D"/>
  <outline>
    <contour>
      <point x="177" y="0" type="line"/>
      <point x="3" y="0" type="line"/>
      <point x="3" y="129" type="line"/>
      <point x="33" y="129" type="line"/>
      <point x="33" y="591" type="line"/>
      <point x="3" y="591" type="line"/>
      <point x="3" y="720" type="line"/>
      <point x="177" y="720" type="line"/>
    </contour>
  </outline>
</glyph>
<glyph name="asciicircum" format="1">
  <advance width="294"/>
  <unicode hex="005E"/>
  <outline>
    <contour>
      <point x="294" y="350" type="line"/>
      <point x="153" y="350" type="line"/>
      <point x="147" y="616" type="line"/>
      <point x="141" y="350" type="line"/>
      <point x="0" y="350" type="line"/>
      <point x="54" y="720" type="line"/>
      <point x="240" y="720" type="line"/>
    </contour>
  </outline>
</glyph>
<glyph name="underscore" format="1">
  <advance width="225"/>
  <unicode hex="005F"/>
  <outline>
    <contour>
      <point x="225" y="-123" type="line"/>
      <point x="0" y="-123" type="line"/>
      <point x="0" y="-30" type="line"/>
      <point x="225" y="-30" type="line"/>
    </contour>
  </outline>
</glyph>
<glyph name="grave" format="1">
  <advance width="290"/>
  <unicode hex="0060"/>
  <outline>
    <contour>
      <point x="250" y="490" type="line"/>
      <point x="99" y="490" type="line"/>
      <point x="40" y="665" type="line"/>
      <point x="201" y="665" type="line"/>
    </contour>
  </outline>
</glyph>
<glyph name="a" format="1">
  <advance width="290"/>
  <unicode hex="0061"/>
  <outline>
    <contour>
      <point x="285" y="14" type="line"/>
      <point x="246" y="1"/>
      <point x="197" y="-5"/>
      <point x="145" y="-5" type="curve" smooth="yes"/>
      <point x="93" y="-5"/>
      <point x="44" y="1"/>
      <point x="5" y="14" type="curve"/>
      <point x="5" y="264" type="line"/>
      <point x="45" y="271"/>
      <point x="93" y="273"/>
      <point x="140" y="273" type="curve" smooth="yes"/>
      <point x="141" y="273"/>
      <point x="149" y="273"/>
      <point x="150" y="273" type="curve"/>
      <point x="150" y="404" type="line"/>
      <point x="149" y="404"/>
      <point x="146" y="404"/>
      <point x="145" y="404" type="curve" smooth="yes"/>
      <point x="144" y="404"/>
      <point x="141" y="404"/>
      <point x="140" y="404" type="curve"/>
      <point x="140" y="281" type="line"/>
      <point x="5" y="281" type="line"/>
      <point x="5" y="466" type="line"/>
      <point x="44" y="479"/>
      <point x="93" y="485"/>
      <point x="145" y="485" type="curve" smooth="yes"/>
      <point x="197" y="485"/>
      <point x="246" y="479"/>
      <point x="285" y="466" type="curve"/>
    </contour>
    <contour>
      <point x="150" y="67" type="curve"/>
      <point x="150" y="203" type="line"/>
      <point x="149" y="203"/>
      <point x="146" y="203"/>
      <point x="145" y="203" type="curve" smooth="yes"/>
      <point x="144" y="203"/>
      <point x="141" y="203"/>
      <point x="140" y="203" type="curve"/>
      <point x="140" y="67" type="line"/>
      <point x="141" y="67"/>
      <point x="144" y="67"/>
      <point x="145" y="67" type="curve" smooth="yes"/>
      <point x="146" y="67"/>
      <point x="149" y="67"/>
    </contour>
  </outline>
</glyph>
<glyph name="b" format="1">
  <advance width="290"/>
  <unicode hex="0062"/>
  <outline>
    <contour>
      <point x="285" y="14" type="line"/>
      <point x="246" y="1"/>
      <point x="197" y="-5"/>
      <point x="145" y="-5" type="curve" smooth="yes"/>
      <point x="93" y="-5"/>
      <point x="44" y="1"/>
      <point x="5" y="14" type="curve"/>
      <point x="5" y="720" type="line"/>
      <point x="140" y="720" type="line"/>
      <point x="140" y="480" type="line"/>
      <point x="141" y="480"/>
      <point x="147" y="480"/>
      <point x="148" y="480" type="curve" smooth="yes"/>
      <point x="195" y="480"/>
      <point x="245" y="474"/>
      <point x="285" y="461" type="curve"/>
    </contour>
    <contour>
      <point x="150" y="88" type="curve"/>
      <point x="150" y="387" type="line"/>
      <point x="149" y="387"/>
      <point x="146" y="387"/>
      <point x="145" y="387" type="curve" smooth="yes"/>
      <point x="144" y="387"/>
      <point x="141" y="387"/>
      <point x="140" y="387" type="curve"/>
      <point x="140" y="88" type="line"/>
      <point x="141" y="88"/>
      <point x="144" y="88"/>
      <point x="145" y="88" type="curve" smooth="yes"/>
      <point x="146" y="88"/>
      <point x="149" y="88"/>
    </contour>
  </outline>
</glyph>
<glyph name="e" format="1">
  <advance width="290"/>
  <unicode hex="0065"/>
  <outline>
    <contour>
      <point x="285" y="14" type="line"/>
      <point x="246" y="1"/>
      <point x="197" y="-5"/>
      <point x="145" y="-5" type="curve" smooth="yes"/>
      <point x="93" y="-5"/>
      <point x="44" y="1"/>
      <point x="5" y="14" type="curve"/>
      <point x="5" y="466" type="line"/>
      <point x="44" y="479"/>
      <point x="93" y="485"/>
      <point x="145" y="485" type="curve" smooth="yes"/>
      <point x="197" y="485"/>
      <point x="246" y="479"/>
      <point x="285" y="466" type="curve"/>
      <point x="285" y="200" type="line"/>
      <point x="140" y="200" type="line"/>
      <point x="140" y="76" type="line"/>
      <point x="141" y="76"/>
      <point x="144" y="76"/>
      <point x="145" y="76" type="curve" smooth="yes"/>
      <point x="146" y="76"/>
      <point x="149" y="76"/>
      <point x="150" y="76" type="curve"/>
      <point x="150" y="191" type="line"/>
      <point x="285" y="191" type="line"/>
    </contour>
    <contour>
      <point x="150" y="266" type="curve"/>
      <point x="150" y="410" type="line"/>
      <point x="149" y="410"/>
      <point x="146" y="410"/>
      <point x="145" y="410" type="curve" smooth="yes"/>
      <point x="144" y="410"/>
      <point x="141" y="410"/>
      <point x="140" y="410" type="curve"/>
      <point x="140" y="266" type="line"/>
      <point x="142" y="266"/>
      <point x="148" y="266"/>
    </contour>
  </outline>
</glyph>
<glyph name="g" format="1">
  <advance width="290"/>
  <unicode hex="0067"/>
  <outline>
    <contour>
      <point x="285" y="-161" type="line"/>
      <point x="246" y="-174"/>
      <point x="197" y="-180"/>
      <point x="145" y="-180" type="curve" smooth="yes"/>
      <point x="93" y="-180"/>
      <point x="44" y="-174"/>
      <point x="5" y="-161" type="curve"/>
      <point x="5" y="-10" type="line"/>
      <point x="140" y="-10" type="line"/>
      <point x="140" y="-102" type="line"/>
      <point x="141" y="-102"/>
      <point x="144" y="-102"/>
      <point x="145" y="-102" type="curve" smooth="yes"/>
      <point x="146" y="-102"/>
      <point x="149" y="-102"/>
      <point x="150" y="-102" type="curve"/>
      <point x="150" y="-1" type="line"/>
      <point x="149" y="-1"/>
      <point x="141" y="-1"/>
      <point x="140" y="-1" type="curve" smooth="yes"/>
      <point x="93" y="-1"/>
      <point x="45" y="1"/>
      <point x="5" y="8" type="curve"/>
      <point x="5" y="466" type="line"/>
      <point x="44" y="479"/>
      <point x="93" y="485"/>
      <point x="145" y="485" type="curve" smooth="yes"/>
      <point x="197" y="485"/>
      <point x="246" y="479"/>
      <point x="285" y="466" type="curve"/>
    </contour>
    <contour>
      <point x="150" y="87" type="curve"/>
      <point x="150" y="392" type="line"/>
      <point x="149" y="392"/>
      <point x="146" y="392"/>
      <point x="145" y="392" type="curve" smooth="yes"/>
      <point x="144" y="392"/>
      <point x="141" y="392"/>
      <point x="140" y="392" type="curve"/>
      <point x="140" y="87" type="line"/>
      <point x="141" y="87"/>
      <point x="144" y="87"/>
      <point x="145" y="87" type="curve" smooth="yes"/>
      <point x="146" y="87"/>
      <point x="149" y="87"/>
    </contour>
  </outline>
</glyph>
<glyph name="h" format="1">
  <advance width="290"/>
  <unicode hex="0068"/>
  <outline>
    <contour>
      <point x="285" y="0" type="line"/>
      <point x="150" y="0" type="line"/>
      <point x="150" y="381" type="line"/>
      <point x="149" y="381"/>
      <point x="146" y="381"/>
      <point x="145" y="381" type="curve" smooth="yes"/>
      <point x="144" y="381"/>
      <point x="141" y="381"/>
      <point x="140" y="381" type="curve"/>
      <point x="140" y="0" type="line"/>
      <point x="5" y="0" type="line"/>
      <point x="5" y="720" type="line"/>
      <point x="140" y="720" type="line"/>
      <point x="140" y="480" type="line"/>
      <point x="141" y="480"/>
      <point x="145" y="480"/>
      <point x="146" y="480" type="curve" smooth="yes"/>
      <point x="193" y="480"/>
      <point x="245" y="474"/>
      <point x="285" y="461" type="curve"/>
    </contour>
  </outline>
</glyph>
<glyph name="i" format="1">
  <advance width="148"/>
  <unicode hex="0069"/>
  <outline>
    <contour>
      <point x="143" y="490" type="line"/>
      <point x="5" y="490" type="line"/>
      <point x="5" y="628" type="line"/>
      <point x="143" y="628" type="line"/>
    </contour>
    <contour>
      <point x="143" y="0" type="line"/>
      <point x="5" y="0" type="line"/>
      <point x="5" y="480" type="line"/>
      <point x="143" y="480" type="line"/>
    </contour>
  </outline>
</glyph>
<glyph name="j" format="1">
  <advance width="148"/>
  <unicode hex="006A"/>
  <outline>
    <contour>
      <point x="143" y="490" type="line"/>
      <point x="5" y="490" type="line"/>
      <point x="5" y="628" type="line"/>
      <point x="143" y="628" type="line"/>
    </contour>
    <contour>
      <point x="143" y="-163" type="line"/>
      <point x="102" y="-175"/>
      <point x="60" y="-182"/>
      <point x="8" y="-182" type="curve" smooth="yes"/>
      <point x="-19" y="-182" type="line"/>
      <point x="-19" y="-68" type="line"/>
      <point x="-5" y="-68" type="line" smooth="yes"/>
      <point x="-2" y="-68"/>
      <point x="2" y="-68"/>
      <point x="5" y="-68" type="curve"/>
      <point x="5" y="480" type="line"/>
      <point x="143" y="480" type="line"/>
    </contour>
  </outline>
</glyph>
<glyph name="k" format="1">
  <advance width="290"/>
  <unicode hex="006B"/>
  <outline>
    <contour>
      <point x="285" y="0" type="line"/>
      <point x="150" y="0" type="line"/>
      <point x="150" y="192" type="line"/>
      <point x="149" y="192"/>
      <point x="146" y="192"/>
      <point x="144" y="192" type="curve" smooth="yes"/>
      <point x="140" y="192" type="line"/>
      <point x="140" y="0" type="line"/>
      <point x="5" y="0" type="line"/>
      <point x="5" y="720" type="line"/>
      <point x="140" y="720" type="line"/>
      <point x="140" y="294" type="line"/>
      <point x="144" y="294" type="line" smooth="yes"/>
      <point x="146" y="294"/>
      <point x="149" y="294"/>
      <point x="150" y="294" type="curve"/>
      <point x="150" y="480" type="line"/>
      <point x="285" y="480" type="line"/>
      <point x="285" y="249" type="line"/>
      <point x="273" y="248"/>
      <point x="236" y="244"/>
      <point x="211" y="243" type="curve"/>
      <point x="236" y="242"/>
      <point x="273" y="238"/>
      <point x="285" y="236" type="curve"/>
    </contour>
  </outline>
</glyph>
<glyph name="m" format="1">
  <advance width="434"/>
  <unicode hex="006D"/>
  <outline>
    <contour>
      <point x="429" y="0" type="line"/>
      <point x="294" y="0" type="line"/>
      <point x="294" y="395" type="line"/>
      <point x="292" y="395"/>
      <point x="286" y="395"/>
      <point x="284" y="395" type="curve"/>
      <point x="284" y="0" type="line"/>
      <point x="150" y="0" type="line"/>
      <point x="150" y="395" type="line"/>
      <point x="148" y="395"/>
      <point x="142" y="395"/>
      <point x="140" y="395" type="curve"/>
      <point x="140" y="0" type="line"/>
      <point x="5" y="0" type="line"/>
      <point x="5" y="469" type="line"/>
      <point x="56" y="481"/>
      <point x="137" y="488"/>
      <point x="217" y="488" type="curve" smooth="yes"/>
      <point x="297" y="488"/>
      <point x="379" y="481"/>
      <point x="429" y="469" type="curve"/>
    </contour>
  </outline>
</glyph>
<glyph name="n" format="1">
  <advance width="290"/>
  <unicode hex="006E"/>
  <outline>
    <contour>
      <point x="285" y="0" type="line"/>
      <point x="150" y="0" type="line"/>
      <point x="150" y="386" type="line"/>
      <point x="149" y="386"/>
      <point x="146" y="386"/>
      <point x="145" y="386" type="curve" smooth="yes"/>
      <point x="144" y="386"/>
      <point x="141" y="386"/>
      <point x="140" y="386" type="curve"/>
      <point x="140" y="0" type="line"/>
      <point x="5" y="0" type="line"/>
      <point x="5" y="466" type="line"/>
      <point x="44" y="479"/>
      <point x="93" y="485"/>
      <point x="145" y="485" type="curve" smooth="yes"/>
      <point x="197" y="485"/>
      <point x="246" y="479"/>
      <point x="285" y="466" type="curve"/>
    </contour>
  </outline>
</glyph>
<glyph name="o" format="1">
  <advance width="290"/>
  <unicode hex="006F"/>
  <outline>
    <contour>
      <point x="285" y="14" type="line"/>
      <point x="246" y="1"/>
      <point x="197" y="-5"/>
      <point x="145" y="-5" type="curve" smooth="yes"/>
      <point x="93" y="-5"/>
      <point x="44" y="1"/>
      <point x="5" y="14" type="curve"/>
      <point x="5" y="466" type="line"/>
      <point x="44" y="479"/>
      <point x="93" y="485"/>
      <point x="145" y="485" type="curve" smooth="yes"/>
      <point x="197" y="485"/>
      <point x="246" y="479"/>
      <point x="285" y="466" type="curve"/>
    </contour>
    <contour>
      <point x="150" y="88" type="curve"/>
      <point x="150" y="392" type="line"/>
      <point x="149" y="392"/>
      <point x="146" y="392"/>
      <point x="145" y="392" type="curve" smooth="yes"/>
      <point x="144" y="392"/>
      <point x="141" y="392"/>
      <point x="140" y="392" type="curve"/>
      <point x="140" y="88" type="line"/>
      <point x="141" y="88"/>
      <point x="144" y="88"/>
      <point x="145" y="88" type="curve" smooth="yes"/>
      <point x="146" y="88"/>
      <point x="149" y="88"/>
    </contour>
  </outline>
</glyph>
<glyph name="p" format="1">
  <advance width="290"/>
  <unicode hex="0070"/>
  <outline>
    <contour>
      <point x="285" y="19" type="line"/>
      <point x="245" y="6"/>
      <point x="195" y="0"/>
      <point x="148" y="0" type="curve" smooth="yes"/>
      <point x="147" y="0"/>
      <point x="141" y="0"/>
      <point x="140" y="0" type="curve"/>
      <point x="140" y="-175" type="line"/>
      <point x="5" y="-175" type="line"/>
      <point x="5" y="466" type="line"/>
      <point x="44" y="479"/>
      <point x="93" y="485"/>
      <point x="145" y="485" type="curve" smooth="yes"/>
      <point x="197" y="485"/>
      <point x="246" y="479"/>
      <point x="285" y="466" type="curve"/>
    </contour>
    <contour>
      <point x="150" y="93" type="curve"/>
      <point x="150" y="392" type="line"/>
      <point x="149" y="392"/>
      <point x="146" y="392"/>
      <point x="145" y="392" type="curve" smooth="yes"/>
      <point x="144" y="392"/>
      <point x="141" y="392"/>
      <point x="140" y="392" type="curve"/>
      <point x="140" y="93" type="line"/>
      <point x="141" y="93"/>
      <point x="144" y="93"/>
      <point x="145" y="93" type="curve" smooth="yes"/>
      <point x="146" y="93"/>
      <point x="149" y="93"/>
    </contour>
  </outline>
</glyph>
<glyph name="q" format="1">
  <advance width="290"/>
  <unicode hex="0071"/>
  <outline>
    <contour>
      <point x="285" y="-175" type="line"/>
      <point x="150" y="-175" type="line"/>
      <point x="150" y="0" type="line"/>
      <point x="149" y="0"/>
      <point x="143" y="0"/>
      <point x="142" y="0" type="curve" smooth="yes"/>
      <point x="95" y="0"/>
      <point x="45" y="6"/>
      <point x="5" y="19" type="curve"/>
      <point x="5" y="466" type="line"/>
      <point x="44" y="479"/>
      <point x="93" y="485"/>
      <point x="145" y="485" type="curve" smooth="yes"/>
      <point x="197" y="485"/>
      <point x="246" y="479"/>
      <point x="285" y="466" type="curve"/>
    </contour>
    <contour>
      <point x="150" y="93" type="curve"/>
      <point x="150" y="392" type="line"/>
      <point x="149" y="392"/>
      <point x="146" y="392"/>
      <point x="145" y="392" type="curve" smooth="yes"/>
      <point x="144" y="392"/>
      <point x="141" y="392"/>
      <point x="140" y="392" type="curve"/>
      <point x="140" y="93" type="line"/>
      <point x="141" y="93"/>
      <point x="144" y="93"/>
      <point x="145" y="93" type="curve" smooth="yes"/>
      <point x="146" y="93"/>
      <point x="149" y="93"/>
    </contour>
  </outline>
</glyph>
<glyph name="r" format="1">
  <advance width="176"/>
  <unicode hex="0072"/>
  <outline>
    <contour>
      <point x="173" y="370" type="line"/>
      <point x="153" y="370" type="line" smooth="yes"/>
      <point x="150" y="370"/>
      <point x="146" y="370"/>
      <point x="143" y="370" type="curve"/>
      <point x="143" y="0" type="line"/>
      <point x="5" y="0" type="line"/>
      <point x="5" y="464" type="line"/>
      <point x="46" y="476"/>
      <point x="88" y="483"/>
      <point x="140" y="483" type="curve" smooth="yes"/>
      <point x="173" y="483" type="line"/>
    </contour>
  </outline>
</glyph>
<glyph name="s" format="1">
  <advance width="290"/>
  <unicode hex="0073"/>
  <outline>
    <contour>
      <point x="285" y="14" type="line"/>
      <point x="246" y="1"/>
      <point x="197" y="-5"/>
      <point x="145" y="-5" type="curve" smooth="yes"/>
      <point x="93" y="-5"/>
      <point x="44" y="1"/>
      <point x="5" y="14" type="curve"/>
      <point x="5" y="194" type="line"/>
      <point x="140" y="194" type="line"/>
      <point x="140" y="76" type="line"/>
      <point x="141" y="76"/>
      <point x="144" y="76"/>
      <point x="145" y="76" type="curve" smooth="yes"/>
      <point x="146" y="76"/>
      <point x="149" y="76"/>
      <point x="150" y="76" type="curve"/>
      <point x="150" y="203" type="line"/>
      <point x="5" y="203" type="line"/>
      <point x="5" y="466" type="line"/>
      <point x="44" y="479"/>
      <point x="93" y="485"/>
      <point x="145" y="485" type="curve" smooth="yes"/>
      <point x="197" y="485"/>
      <point x="246" y="479"/>
      <point x="285" y="466" type="curve"/>
      <point x="285" y="290" type="line"/>
      <point x="150" y="290" type="line"/>
      <point x="150" y="404" type="line"/>
      <point x="149" y="404"/>
      <point x="146" y="404"/>
      <point x="145" y="404" type="curve" smooth="yes"/>
      <point x="144" y="404"/>
      <point x="141" y="404"/>
      <point x="140" y="404" type="curve"/>
      <point x="140" y="281" type="line"/>
      <point x="285" y="281" type="line"/>
    </contour>
  </outline>
</glyph>
<glyph name="t" format="1">
  <advance width="170"/>
  <unicode hex="0074"/>
  <outline>
    <contour>
      <point x="166" y="-3" type="line"/>
      <point x="140" y="-3" type="line" smooth="yes"/>
      <point x="88" y="-3"/>
      <point x="46" y="4"/>
      <point x="5" y="16" type="curve"/>
      <point x="5" y="370" type="line"/>
      <point x="5" y="370" type="line"/>
      <point x="5" y="480" type="line"/>
      <point x="5" y="480" type="line"/>
      <point x="5" y="628" type="line"/>
      <point x="143" y="628" type="line"/>
      <point x="143" y="480" type="line"/>
      <point x="166" y="480" type="line"/>
      <point x="166" y="370" type="line"/>
      <point x="143" y="370" type="line"/>
      <point x="143" y="106" type="line"/>
      <point x="146" y="106"/>
      <point x="150" y="106"/>
      <point x="153" y="106" type="curve" smooth="yes"/>
      <point x="166" y="106" type="line"/>
    </contour>
  </outline>
</glyph>
<glyph name="u" format="1">
  <advance width="290"/>
  <unicode hex="0075"/>
  <outline>
    <contour>
      <point x="285" y="14" type="line"/>
      <point x="246" y="1"/>
      <point x="197" y="-5"/>
      <point x="145" y="-5" type="curve" smooth="yes"/>
      <point x="93" y="-5"/>
      <point x="44" y="1"/>
      <point x="5" y="14" type="curve"/>
      <point x="5" y="480" type="line"/>
      <point x="140" y="480" type="line"/>
      <point x="140" y="94" type="line"/>
      <point x="141" y="94"/>
      <point x="144" y="94"/>
      <point x="145" y="94" type="curve" smooth="yes"/>
      <point x="146" y="94"/>
      <point x="149" y="94"/>
      <point x="150" y="94" type="curve"/>
      <point x="150" y="480" type="line"/>
      <point x="285" y="480" type="line"/>
    </contour>
  </outline>
</glyph>
<glyph name="v" format="1">
  <advance width="290"/>
  <unicode hex="0076"/>
  <outline>
    <contour>
      <point x="285" y="171" type="line" smooth="yes"/>
      <point x="285" y="79"/>
      <point x="268" y="45"/>
      <point x="222" y="0" type="curve"/>
      <point x="68" y="0" type="line"/>
      <point x="22" y="45"/>
      <point x="5" y="79"/>
      <point x="5" y="171" type="curve" smooth="yes"/>
      <point x="5" y="480" type="line"/>
      <point x="140" y="480" type="line"/>
      <point x="140" y="143" type="line" smooth="yes"/>
      <point x="140" y="109"/>
      <point x="143" y="103"/>
      <point x="145" y="85" type="curve"/>
      <point x="147" y="103"/>
      <point x="150" y="109"/>
      <point x="150" y="143" type="curve" smooth="yes"/>
      <point x="150" y="480" type="line"/>
      <point x="285" y="480" type="line"/>
    </contour>
  </outline>
</glyph>
<glyph name="w" format="1">
  <advance width="434"/>
  <unicode hex="0077"/>
  <outline>
    <contour>
      <point x="429" y="11" type="line"/>
      <point x="379" y="-1"/>
      <point x="297" y="-8"/>
      <point x="217" y="-8" type="curve" smooth="yes"/>
      <point x="137" y="-8"/>
      <point x="56" y="-1"/>
      <point x="5" y="11" type="curve"/>
      <point x="5" y="480" type="line"/>
      <point x="140" y="480" type="line"/>
      <point x="140" y="85" type="line"/>
      <point x="142" y="85"/>
      <point x="148" y="85"/>
      <point x="150" y="85" type="curve"/>
      <point x="150" y="480" type="line"/>
      <point x="284" y="480" type="line"/>
      <point x="284" y="85" type="line"/>
      <point x="286" y="85"/>
      <point x="292" y="85"/>
      <point x="294" y="85" type="curve"/>
      <point x="294" y="480" type="line"/>
      <point x="429" y="480" type="line"/>
    </contour>
  </outline>
</glyph>
<glyph name="x" format="1">
  <advance width="290"/>
  <unicode hex="0078"/>
  <outline>
    <contour>
      <point x="285" y="0" type="line"/>
      <point x="150" y="0" type="line"/>
      <point x="150" y="192" type="line"/>
      <point x="149" y="192"/>
      <point x="146" y="192"/>
      <point x="145" y="192" type="curve" smooth="yes"/>
      <point x="144" y="192"/>
      <point x="141" y="192"/>
      <point x="140" y="192" type="curve"/>
      <point x="140" y="0" type="line"/>
      <point x="5" y="0" type="line"/>
      <point x="5" y="236" type="line"/>
      <point x="17" y="238"/>
      <point x="54" y="242"/>
      <point x="79" y="243" type="curve"/>
      <point x="54" y="244"/>
      <point x="17" y="248"/>
      <point x="5" y="249" type="curve"/>
      <point x="5" y="480" type="line"/>
      <point x="140" y="480" type="line"/>
      <point x="140" y="294" type="line"/>
      <point x="141" y="294"/>
      <point x="144" y="294"/>
      <point x="145" y="294" type="curve" smooth="yes"/>
      <point x="146" y="294"/>
      <point x="149" y="294"/>
      <point x="150" y="294" type="curve"/>
      <point x="150" y="480" type="line"/>
      <point x="285" y="480" type="line"/>
      <point x="285" y="249" type="line"/>
      <point x="273" y="248"/>
      <point x="236" y="244"/>
      <point x="211" y="243" type="curve"/>
      <point x="236" y="242"/>
      <point x="273" y="238"/>
      <point x="285" y="236" type="curve"/>
    </contour>
  </outline>
</glyph>
<glyph name="y" format="1">
  <advance width="290"/>
  <unicode hex="0079"/>
  <outline>
    <contour>
      <point x="285" y="-166" type="line"/>
      <point x="246" y="-179"/>
      <point x="197" y="-185"/>
      <point x="145" y="-185" type="curve" smooth="yes"/>
      <point x="93" y="-185"/>
      <point x="44" y="-179"/>
      <point x="5" y="-166" type="curve"/>
      <point x="5" y="-10" type="line"/>
      <point x="140" y="-10" type="line"/>
      <point x="140" y="-107" type="line"/>
      <point x="141" y="-107"/>
      <point x="144" y="-107"/>
      <point x="145" y="-107" type="curve" smooth="yes"/>
      <point x="146" y="-107"/>
      <point x="149" y="-107"/>
      <point x="150" y="-107" type="curve"/>
      <point x="150" y="-1" type="line"/>
      <point x="149" y="-1"/>
      <point x="141" y="-1"/>
      <point x="140" y="-1" type="curve" smooth="yes"/>
      <point x="93" y="-1"/>
      <point x="45" y="1"/>
      <point x="5" y="8" type="curve"/>
      <point x="5" y="480" type="line"/>
      <point x="140" y="480" type="line"/>
      <point x="140" y="93" type="line"/>
      <point x="141" y="93"/>
      <point x="144" y="93"/>
      <point x="145" y="93" type="curve" smooth="yes"/>
      <point x="146" y="93"/>
      <point x="149" y="93"/>
      <point x="150" y="93" type="curve"/>
      <point x="150" y="480" type="line"/>
      <point x="285" y="480" type="line"/>
    </contour>
  </outline>
</glyph>
<glyph name="z" format="1">
  <advance width="250"/>
  <unicode hex="007A"/>
  <outline>
    <contour>
      <point x="246" y="0" type="line"/>
      <point x="4" y="0" type="line"/>
      <point x="4" y="106" type="line"/>
      <point x="72" y="370" type="line"/>
      <point x="5" y="370" type="line"/>
      <point x="5" y="480" type="line"/>
      <point x="246" y="480" type="line"/>
      <point x="246" y="373" type="line"/>
      <point x="178" y="110" type="line"/>
      <point x="246" y="110" type="line"/>
    </contour>
  </outline>
</glyph>
<glyph name="braceleft" format="1">
  <advance width="204"/>
  <unicode hex="007B"/>
  <outline>
    <contour>
      <point x="201" y="0" type="line"/>
      <point x="117" y="0"/>
      <point x="83" y="4"/>
      <point x="27" y="22" type="curve"/>
      <point x="27" y="319" type="line"/>
      <point x="22" y="319"/>
      <point x="9" y="319"/>
      <point x="3" y="319" type="curve"/>
      <point x="3" y="424" type="line"/>
      <point x="12" y="424"/>
      <point x="21" y="424"/>
      <point x="27" y="424" type="curve"/>
      <point x="27" y="698" type="line"/>
      <point x="83" y="716"/>
      <point x="117" y="720"/>
      <point x="201" y="720" type="curve"/>
      <point x="201" y="591" type="line"/>
      <point x="190" y="591"/>
      <point x="179" y="591"/>
      <point x="171" y="591" type="curve"/>
      <point x="171" y="378" type="line"/>
      <point x="161" y="377"/>
      <point x="130" y="374"/>
      <point x="109" y="373" type="curve"/>
      <point x="130" y="372"/>
      <point x="161" y="369"/>
      <point x="171" y="367" type="curve"/>
      <point x="171" y="129" type="line"/>
      <point x="179" y="129"/>
      <point x="190" y="129"/>
      <point x="201" y="129" type="curve"/>
    </contour>
  </outline>
</glyph>
<glyph name="bar" format="1">
  <advance width="148"/>
  <unicode hex="007C"/>
  <outline>
    <contour>
      <point x="143" y="-75" type="line"/>
      <point x="5" y="-75" type="line"/>
      <point x="5" y="795" type="line"/>
      <point x="143" y="795" type="line"/>
    </contour>
  </outline>
</glyph>
<glyph name="braceright" format="1">
  <advance width="204"/>
  <unicode hex="007D"/>
  <outline>
    <contour>
      <point x="201" y="319" type="line"/>
      <point x="195" y="319"/>
      <point x="182" y="319"/>
      <point x="177" y="319" type="curve"/>
      <point x="177" y="22" type="line"/>
      <point x="121" y="4"/>
      <point x="87" y="0"/>
      <point x="3" y="0" type="curve"/>
      <point x="3" y="129" type="line"/>
      <point x="14" y="129"/>
      <point x="25" y="129"/>
      <point x="33" y="129" type="curve"/>
      <point x="33" y="367" type="line"/>
      <point x="43" y="369"/>
      <point x="74" y="372"/>
      <point x="95" y="373" type="curve"/>
      <point x="74" y="374"/>
      <point x="43" y="377"/>
      <point x="33" y="378" type="curve"/>
      <point x="33" y="591" type="line"/>
      <point x="25" y="591"/>
      <point x="14" y="591"/>
      <point x="3" y="591" type="curve"/>
      <point x="3" y="720" type="line"/>
      <point x="87" y="720"/>
      <point x="121" y="716"/>
      <point x="177" y="698" type="curve"/>
      <point x="177" y="424" type="line"/>
      <point x="183" y="424"/>
      <point x="191" y="424"/>
      <point x="201" y="424" type="curve"/>
    </contour>
  </outline>
</glyph>
<glyph name="asciitilde" format="1">
  <advance width="327"/>
  <unicode hex="007E"/>
  <outline>
    <contour>
      <point x="322" y="266" type="line"/>
      <point x="191" y="266" type="line"/>
      <point x="136" y="314" type="line"/>
      <point x="136" y="266" type="line"/>
      <point x="5" y="266" type="line"/>
      <point x="5" y="476" type="line"/>
      <point x="136" y="476" type="line"/>
      <point x="191" y="428" type="line"/>
      <point x="191" y="476" type="line"/>
      <point x="322" y="476" type="line"/>
    </contour>
  </outline>
</glyph>
<glyph name="exclamdown" format="1">
  <advance width="154"/>
  <unicode hex="00A1"/>
  <outline>
    <contour>
      <point x="149" y="579" type="line"/>
      <point x="5" y="579" type="line"/>
      <point x="5" y="720" type="line"/>
      <point x="149" y="720" type="line"/>
    </contour>
    <contour>
      <point x="149" y="0" type="line"/>
      <point x="5" y="0" type="line"/>
      <point x="5" y="569" type="line"/>
      <point x="149" y="569" type="line"/>
    </contour>
  </outline>
</glyph>
<glyph name="cent" format="1">
  <advance width="290"/>
  <unicode hex="00A2"/>
  <outline>
    <contour>
      <point x="285" y="134" type="line"/>
      <point x="266" y="128"/>
      <point x="244" y="123"/>
      <point x="220" y="120" type="curve"/>
      <point x="220" y="0" type="line"/>
      <point x="70" y="0" type="line"/>
      <point x="70" y="120" type="line"/>
      <point x="46" y="123"/>
      <point x="24" y="128"/>
      <point x="5" y="134" type="curve"/>
      <point x="5" y="586" type="line"/>
      <point x="24" y="592"/>
      <point x="46" y="597"/>
      <point x="70" y="600" type="curve"/>
      <point x="70" y="720" type="line"/>
      <point x="220" y="720" type="line"/>
      <point x="220" y="600" type="line"/>
      <point x="244" y="597"/>
      <point x="266" y="592"/>
      <point x="285" y="586" type="curve"/>
      <point x="285" y="365" type="line"/>
      <point x="150" y="365" type="line"/>
      <point x="150" y="512" type="line"/>
      <point x="149" y="512"/>
      <point x="146" y="512"/>
      <point x="145" y="512" type="curve" smooth="yes"/>
      <point x="144" y="512"/>
      <point x="141" y="512"/>
      <point x="140" y="512" type="curve"/>
      <point x="140" y="208" type="line"/>
      <point x="141" y="208"/>
      <point x="144" y="208"/>
      <point x="145" y="208" type="curve" smooth="yes"/>
      <point x="146" y="208"/>
      <point x="149" y="208"/>
      <point x="150" y="208" type="curve"/>
      <point x="150" y="356" type="line"/>
      <point x="285" y="356" type="line"/>
    </contour>
  </outline>
</glyph>
<glyph name="sterling" format="1">
  <advance width="320"/>
  <unicode hex="00A3"/>
  <outline>
    <contour>
      <point x="315" y="0" type="line"/>
      <point x="5" y="0" type="line"/>
      <point x="5" y="139" type="line"/>
      <point x="5" y="139" type="line"/>
      <point x="5" y="287" type="line"/>
      <point x="5" y="287" type="line"/>
      <point x="5" y="423" type="line"/>
      <point x="5" y="423" type="line"/>
      <point x="5" y="703" type="line"/>
      <point x="52" y="718"/>
      <point x="108" y="725"/>
      <point x="160" y="725" type="curve" smooth="yes"/>
      <point x="212" y="725"/>
      <point x="268" y="718"/>
      <point x="315" y="703" type="curve"/>
      <point x="315" y="432" type="line"/>
      <point x="165" y="432" type="line"/>
      <point x="165" y="620" type="line"/>
      <point x="164" y="620"/>
      <point x="161" y="620"/>
      <point x="160" y="620" type="curve" smooth="yes"/>
      <point x="159" y="620"/>
      <point x="156" y="620"/>
      <point x="155" y="620" type="curve"/>
      <point x="155" y="423" type="line"/>
      <point x="303" y="423" type="line"/>
      <point x="303" y="287" type="line"/>
      <point x="155" y="287" type="line"/>
      <point x="155" y="139" type="line"/>
      <point x="315" y="139" type="line"/>
    </contour>
  </outline>
</glyph>
<glyph name="section" format="1">
  <advance width="320"/>
  <unicode hex="00A7"/>
  <outline>
    <contour>
      <point x="315" y="-158" type="line"/>
      <point x="268" y="-173"/>
      <point x="212" y="-180"/>
      <point x="160" y="-180" type="curve" smooth="yes"/>
      <point x="108" y="-180"/>
      <point x="52" y="-173"/>
      <point x="5" y="-158" type="curve"/>
      <point x="5" y="81" type="line"/>
      <point x="155" y="81" type="line"/>
      <point x="155" y="-75" type="line"/>
      <point x="156" y="-75"/>
      <point x="159" y="-75"/>
      <point x="160" y="-75" type="curve" smooth="yes"/>
      <point x="161" y="-75"/>
      <point x="164" y="-75"/>
      <point x="165" y="-75" type="curve"/>
      <point x="165" y="61" type="line"/>
      <point x="165" y="89" type="line"/>
      <point x="163" y="89"/>
      <point x="162" y="89"/>
      <point x="160" y="89" type="curve" smooth="yes"/>
      <point x="108" y="89"/>
      <point x="52" y="94"/>
      <point x="5" y="103" type="curve"/>
      <point x="5" y="434" type="line"/>
      <point x="11" y="436"/>
      <point x="17" y="438"/>
      <point x="23" y="439" type="curve"/>
      <point x="5" y="456" type="line"/>
      <point x="5" y="703" type="line"/>
      <point x="52" y="718"/>
      <point x="108" y="725"/>
      <point x="160" y="725" type="curve" smooth="yes"/>
      <point x="212" y="725"/>
      <point x="268" y="718"/>
      <point x="315" y="703" type="curve"/>
      <point x="315" y="464" type="line"/>
      <point x="165" y="464" type="line"/>
      <point x="165" y="620" type="line"/>
      <point x="164" y="620"/>
      <point x="161" y="620"/>
      <point x="160" y="620" type="curve" smooth="yes"/>
      <point x="159" y="620"/>
      <point x="156" y="620"/>
      <point x="155" y="620" type="curve"/>
      <point x="155" y="484" type="line"/>
      <point x="155" y="456" type="line"/>
      <point x="157" y="456"/>
      <point x="158" y="456"/>
      <point x="160" y="456" type="curve" smooth="yes"/>
      <point x="212" y="456"/>
      <point x="268" y="451"/>
      <point x="315" y="442" type="curve"/>
      <point x="315" y="111" type="line"/>
      <point x="309" y="109"/>
      <point x="303" y="107"/>
      <point x="297" y="106" type="curve"/>
      <point x="315" y="89" type="line"/>
    </contour>
    <contour>
      <point x="165" y="194" type="curve"/>
      <point x="165" y="351" type="line"/>
      <point x="164" y="351"/>
      <point x="161" y="351"/>
      <point x="160" y="351" type="curve" smooth="yes"/>
      <point x="159" y="351"/>
      <point x="156" y="351"/>
      <point x="155" y="351" type="curve"/>
      <point x="155" y="194" type="line"/>
      <point x="156" y="194"/>
      <point x="159" y="194"/>
      <point x="160" y="194" type="curve" smooth="yes"/>
      <point x="161" y="194"/>
      <point x="164" y="194"/>
    </contour>
  </outline>
</glyph>
<glyph name="dieresis" format="1">
  <advance width="290"/>
  <unicode hex="00A8"/>
  <outline>
    <contour>
      <point x="285" y="490" type="line"/>
      <point x="150" y="490" type="line"/>
      <point x="150" y="665" type="line"/>
      <point x="285" y="665" type="line"/>
    </contour>
    <contour>
      <point x="140" y="490" type="line"/>
      <point x="5" y="490" type="line"/>
      <point x="5" y="665" type="line"/>
      <point x="140" y="665" type="line"/>
    </contour>
  </outline>
</glyph>
<glyph name="copyright" format="1">
  <advance width="388"/>
  <unicode hex="00A9"/>
  <outline>
    <contour>
      <point x="383" y="22" type="line"/>
      <point x="325" y="2"/>
      <point x="256" y="-5"/>
      <point x="194" y="-5" type="curve" smooth="yes"/>
      <point x="132" y="-5"/>
      <point x="63" y="2"/>
      <point x="5" y="22" type="curve"/>
      <point x="5" y="698" type="line"/>
      <point x="63" y="718"/>
      <point x="132" y="725"/>
      <point x="194" y="725" type="curve" smooth="yes"/>
      <point x="256" y="725"/>
      <point x="325" y="718"/>
      <point x="383" y="698" type="curve"/>
    </contour>
    <contour>
      <point x="311" y="78" type="curve"/>
      <point x="311" y="642" type="line"/>
      <point x="277" y="652"/>
      <point x="228" y="656"/>
      <point x="194" y="656" type="curve" smooth="yes"/>
      <point x="160" y="656"/>
      <point x="111" y="652"/>
      <point x="78" y="642" type="curve"/>
      <point x="78" y="78" type="line"/>
      <point x="111" y="68"/>
      <point x="160" y="64"/>
      <point x="194" y="64" type="curve" smooth="yes"/>
      <point x="228" y="64"/>
      <point x="277" y="68"/>
    </contour>
    <contour>
      <point x="301" y="86" type="line"/>
      <point x="268" y="78"/>
      <point x="230" y="74"/>
      <point x="194" y="74" type="curve" smooth="yes"/>
      <point x="159" y="74"/>
      <point x="120" y="78"/>
      <point x="88" y="86" type="curve"/>
      <point x="88" y="634" type="line"/>
      <point x="120" y="642"/>
      <point x="159" y="646"/>
      <point x="194" y="646" type="curve" smooth="yes"/>
      <point x="230" y="646"/>
      <point x="268" y="642"/>
      <point x="301" y="634" type="curve"/>
      <point x="301" y="376" type="line"/>
      <point x="199" y="376" type="line"/>
      <point x="199" y="574" type="line"/>
      <point x="198" y="574"/>
      <point x="195" y="574"/>
      <point x="194" y="574" type="curve" smooth="yes"/>
      <point x="194" y="574"/>
      <point x="191" y="574"/>
      <point x="190" y="574" type="curve"/>
      <point x="190" y="146" type="line"/>
      <point x="191" y="146"/>
      <point x="194" y="146"/>
      <point x="194" y="146" type="curve" smooth="yes"/>
      <point x="195" y="146"/>
      <point x="198" y="146"/>
      <point x="199" y="146" type="curve"/>
      <point x="199" y="345" type="line"/>
      <point x="301" y="345" type="line"/>
    </contour>
  </outline>
</glyph>
<glyph name="ordfeminine" format="1">
  <advance width="202"/>
  <unicode hex="00AA"/>
  <outline>
    <contour>
      <point x="197" y="396" type="line"/>
      <point x="171" y="387"/>
      <point x="137" y="383"/>
      <point x="101" y="383" type="curve" smooth="yes"/>
      <point x="66" y="383"/>
      <point x="32" y="387"/>
      <point x="5" y="396" type="curve"/>
      <point x="5" y="571" type="line"/>
      <point x="33" y="576"/>
      <point x="66" y="577"/>
      <point x="98" y="577" type="curve" smooth="yes"/>
      <point x="99" y="577"/>
      <point x="106" y="577"/>
      <point x="107" y="577" type="curve"/>
      <point x="107" y="662" type="line"/>
      <point x="106" y="662"/>
      <point x="102" y="662"/>
      <point x="101" y="662" type="curve" smooth="yes"/>
      <point x="101" y="662"/>
      <point x="97" y="662"/>
      <point x="96" y="662" type="curve"/>
      <point x="96" y="585" type="line"/>
      <point x="5" y="585" type="line"/>
      <point x="5" y="710" type="line"/>
      <point x="32" y="719"/>
      <point x="66" y="723"/>
      <point x="101" y="723" type="curve" smooth="yes"/>
      <point x="137" y="723"/>
      <point x="171" y="719"/>
      <point x="197" y="710" type="curve"/>
    </contour>
    <contour>
      <point x="107" y="437" type="curve"/>
      <point x="107" y="524" type="line"/>
      <point x="106" y="524"/>
      <point x="102" y="524"/>
      <point x="101" y="524" type="curve" smooth="yes"/>
      <point x="101" y="524"/>
      <point x="97" y="524"/>
      <point x="96" y="524" type="curve"/>
      <point x="96" y="437" type="line"/>
      <point x="97" y="437"/>
      <point x="101" y="437"/>
      <point x="101" y="437" type="curve" smooth="yes"/>
      <point x="102" y="437"/>
      <point x="106" y="437"/>
    </contour>
  </outline>
</glyph>
<glyph name="guillemotleft" format="1">
  <advance width="323"/>
  <unicode hex="00AB"/>
  <outline>
    <contour>
      <point x="320" y="0" type="line"/>
      <point x="166" y="159" type="line"/>
      <point x="166" y="321" type="line"/>
      <point x="320" y="480" type="line"/>
      <point x="320" y="295" type="line"/>
      <point x="265" y="240" type="line"/>
      <point x="320" y="186" type="line"/>
    </contour>
    <contour>
      <point x="157" y="0" type="line"/>
      <point x="3" y="159" type="line"/>
      <point x="3" y="321" type="line"/>
      <point x="157" y="480" type="line"/>
      <point x="157" y="295" type="line"/>
      <point x="102" y="240" type="line"/>
      <point x="157" y="186" type="line"/>
    </contour>
  </outline>
</glyph>
<glyph name="macron" format="1">
  <advance width="290"/>
  <unicode hex="00AF"/>
  <unicode hex="02C9"/>
  <outline>
    <contour>
      <point x="285" y="490" type="line"/>
      <point x="5" y="490" type="line"/>
      <point x="5" y="595" type="line"/>
      <point x="285" y="595" type="line"/>
    </contour>
  </outline>
</glyph>
<glyph name="degree" format="1">
  <advance width="241"/>
  <unicode hex="00B0"/>
  <outline>
    <contour>
      <point x="236" y="353" type="line"/>
      <point x="195" y="342"/>
      <point x="155" y="338"/>
      <point x="120" y="338" type="curve" smooth="yes"/>
      <point x="86" y="338"/>
      <point x="46" y="342"/>
      <point x="5" y="353" type="curve"/>
      <point x="5" y="710" type="line"/>
      <point x="46" y="721"/>
      <point x="86" y="725"/>
      <point x="120" y="725" type="curve" smooth="yes"/>
      <point x="155" y="725"/>
      <point x="195" y="721"/>
      <point x="236" y="710" type="curve"/>
    </contour>
    <contour>
      <point x="125" y="417" type="curve"/>
      <point x="125" y="644" type="line"/>
      <point x="124" y="644"/>
      <point x="122" y="644"/>
      <point x="120" y="644" type="curve" smooth="yes"/>
      <point x="119" y="644"/>
      <point x="117" y="644"/>
      <point x="115" y="644" type="curve"/>
      <point x="115" y="417" type="line"/>
      <point x="117" y="417"/>
      <point x="119" y="417"/>
      <point x="120" y="417" type="curve" smooth="yes"/>
      <point x="122" y="417"/>
      <point x="124" y="417"/>
    </contour>
  </outline>
</glyph>
<glyph name="paragraph" format="1">
  <advance width="440"/>
  <unicode hex="00B6"/>
  <outline>
    <contour>
      <point x="435" y="0" type="line"/>
      <point x="305" y="0" type="line"/>
      <point x="305" y="624" type="line"/>
      <point x="295" y="624" type="line"/>
      <point x="295" y="0" type="line"/>
      <point x="165" y="0" type="line"/>
      <point x="165" y="255" type="line"/>
      <point x="158" y="255" type="line" smooth="yes"/>
      <point x="100" y="255"/>
      <point x="48" y="263"/>
      <point x="5" y="277" type="curve"/>
      <point x="5" y="698" type="line"/>
      <point x="48" y="712"/>
      <point x="100" y="720"/>
      <point x="158" y="720" type="curve" smooth="yes"/>
      <point x="435" y="720" type="line"/>
    </contour>
    <contour>
      <point x="165" y="351" type="curve"/>
      <point x="165" y="624" type="line"/>
      <point x="164" y="624"/>
      <point x="161" y="624"/>
      <point x="160" y="624" type="curve" smooth="yes"/>
      <point x="159" y="624"/>
      <point x="156" y="624"/>
      <point x="155" y="624" type="curve"/>
      <point x="155" y="351" type="line"/>
      <point x="156" y="351"/>
      <point x="159" y="351"/>
      <point x="160" y="351" type="curve" smooth="yes"/>
      <point x="161" y="351"/>
      <point x="164" y="351"/>
    </contour>
  </outline>
</glyph>
<glyph name="periodcentered" format="1">
  <advance width="148"/>
  <unicode hex="00B7"/>
  <unicode hex="2219"/>
  <outline>
    <contour>
      <point x="143" y="225" type="line"/>
      <point x="5" y="225" type="line"/>
      <point x="5" y="366" type="line"/>
      <point x="143" y="366" type="line"/>
    </contour>
  </outline>
</glyph>
<glyph name="cedilla" format="1">
  <advance width="290"/>
  <unicode hex="00B8"/>
  <outline>
    <contour>
      <point x="209" y="-93" type="line"/>
      <point x="168" y="-105"/>
      <point x="126" y="-112"/>
      <point x="74" y="-112" type="curve" smooth="yes"/>
      <point x="52" y="-112" type="line"/>
      <point x="52" y="-16" type="line"/>
      <point x="66" y="-16" type="line" smooth="yes"/>
      <point x="69" y="-16"/>
      <point x="78" y="-16"/>
      <point x="81" y="-16" type="curve"/>
      <point x="81" y="10" type="line"/>
      <point x="209" y="10" type="line"/>
    </contour>
  </outline>
</glyph>
<glyph name="ordmasculine" format="1">
  <advance width="202"/>
  <unicode hex="00BA"/>
  <outline>
    <contour>
      <point x="197" y="396" type="line"/>
      <point x="170" y="387"/>
      <point x="137" y="383"/>
      <point x="101" y="383" type="curve" smooth="yes"/>
      <point x="65" y="383"/>
      <point x="32" y="387"/>
      <point x="5" y="396" type="curve"/>
      <point x="5" y="710" type="line"/>
      <point x="32" y="719"/>
      <point x="65" y="723"/>
      <point x="101" y="723" type="curve" smooth="yes"/>
      <point x="137" y="723"/>
      <point x="170" y="719"/>
      <point x="197" y="710" type="curve"/>
    </contour>
    <contour>
      <point x="106" y="452" type="curve"/>
      <point x="106" y="654" type="line"/>
      <point x="106" y="654"/>
      <point x="102" y="654"/>
      <point x="101" y="654" type="curve" smooth="yes"/>
      <point x="100" y="654"/>
      <point x="96" y="654"/>
      <point x="96" y="654" type="curve"/>
      <point x="96" y="452" type="line"/>
      <point x="96" y="452"/>
      <point x="100" y="452"/>
      <point x="101" y="452" type="curve" smooth="yes"/>
      <point x="102" y="452"/>
      <point x="106" y="452"/>
    </contour>
  </outline>
</glyph>
<glyph name="guillemotright" format="1">
  <advance width="323"/>
  <unicode hex="00BB"/>
  <outline>
    <contour>
      <point x="320" y="159" type="line"/>
      <point x="166" y="0" type="line"/>
      <point x="166" y="186" type="line"/>
      <point x="221" y="240" type="line"/>
      <point x="166" y="295" type="line"/>
      <point x="166" y="480" type="line"/>
      <point x="320" y="321" type="line"/>
    </contour>
    <contour>
      <point x="157" y="159" type="line"/>
      <point x="3" y="0" type="line"/>
      <point x="3" y="186" type="line"/>
      <point x="58" y="240" type="line"/>
      <point x="3" y="295" type="line"/>
      <point x="3" y="480" type="line"/>
      <point x="157" y="321" type="line"/>
    </contour>
  </outline>
</glyph>
<glyph name="questiondown" format="1">
  <advance width="318"/>
  <unicode hex="00BF"/>
  <outline>
    <contour>
      <point x="234" y="579" type="line"/>
      <point x="90" y="579" type="line"/>
      <point x="90" y="720" type="line"/>
      <point x="234" y="720" type="line"/>
    </contour>
    <contour>
      <point x="314" y="17" type="line"/>
      <point x="267" y="2"/>
      <point x="211" y="-5"/>
      <point x="159" y="-5" type="curve" smooth="yes"/>
      <point x="107" y="-5"/>
      <point x="51" y="3"/>
      <point x="4" y="18" type="curve"/>
      <point x="4" y="428" type="line"/>
      <point x="90" y="428" type="line"/>
      <point x="90" y="569" type="line"/>
      <point x="234" y="569" type="line"/>
      <point x="234" y="306" type="line"/>
      <point x="154" y="306" type="line"/>
      <point x="154" y="100" type="line"/>
      <point x="155" y="100"/>
      <point x="158" y="100"/>
      <point x="159" y="100" type="curve" smooth="yes"/>
      <point x="160" y="100"/>
      <point x="163" y="100"/>
      <point x="164" y="100" type="curve"/>
      <point x="164" y="297" type="line"/>
      <point x="314" y="297" type="line"/>
    </contour>
  </outline>
</glyph>
<glyph name="Aring" format="1">
  <advance width="320"/>
  <unicode hex="00C5"/>
  <outline>
    <contour>
      <point x="315" y="0" type="line"/>
      <point x="165" y="0" type="line"/>
      <point x="165" y="260" type="line"/>
      <point x="155" y="260" type="line"/>
      <point x="155" y="0" type="line"/>
      <point x="5" y="0" type="line"/>
      <point x="5" y="703" type="line"/>
      <point x="52" y="718"/>
      <point x="108" y="725"/>
      <point x="160" y="725" type="curve" smooth="yes"/>
      <point x="212" y="725"/>
      <point x="268" y="718"/>
      <point x="315" y="703" type="curve"/>
    </contour>
    <contour>
      <point x="165" y="359" type="line"/>
      <point x="165" y="626" type="line"/>
      <point x="164" y="626"/>
      <point x="161" y="626"/>
      <point x="160" y="626" type="curve" smooth="yes"/>
      <point x="159" y="626"/>
      <point x="156" y="626"/>
      <point x="155" y="626" type="curve"/>
      <point x="155" y="359" type="line"/>
    </contour>
    <contour>
      <point x="300" y="752" type="line"/>
      <point x="261" y="739"/>
      <point x="212" y="733"/>
      <point x="160" y="733" type="curve" smooth="yes"/>
      <point x="108" y="733"/>
      <point x="59" y="739"/>
      <point x="20" y="752" type="curve"/>
      <point x="20" y="889" type="line"/>
      <point x="59" y="902"/>
      <point x="108" y="908"/>
      <point x="160" y="908" type="curve" smooth="yes"/>
      <point x="212" y="908"/>
      <point x="261" y="902"/>
      <point x="300" y="889" type="curve"/>
    </contour>
    <contour>
      <point x="165" y="796" type="curve"/>
      <point x="165" y="845" type="line"/>
      <point x="164" y="845"/>
      <point x="161" y="845"/>
      <point x="160" y="845" type="curve" smooth="yes"/>
      <point x="159" y="845"/>
      <point x="156" y="845"/>
      <point x="155" y="845" type="curve"/>
      <point x="155" y="796" type="line"/>
      <point x="156" y="796"/>
      <point x="159" y="796"/>
      <point x="160" y="796" type="curve" smooth="yes"/>
      <point x="161" y="796"/>
      <point x="164" y="796"/>
    </contour>
  </outline>
</glyph>
<glyph name="AE" format="1">
  <advance width="480"/>
  <unicode hex="00C6"/>
  <outline>
    <contour>
      <point x="475" y="17" type="line"/>
      <point x="428" y="2"/>
      <point x="372" y="-5"/>
      <point x="320" y="-5" type="curve" smooth="yes"/>
      <point x="268" y="-5"/>
      <point x="212" y="2"/>
      <point x="165" y="17" type="curve"/>
      <point x="165" y="260" type="line"/>
      <point x="155" y="260" type="line"/>
      <point x="155" y="0" type="line"/>
      <point x="5" y="0" type="line"/>
      <point x="5" y="703" type="line"/>
      <point x="52" y="718"/>
      <point x="108" y="725"/>
      <point x="160" y="725" type="curve" smooth="yes"/>
      <point x="186" y="725"/>
      <point x="213" y="723"/>
      <point x="240" y="719" type="curve"/>
      <point x="266" y="723"/>
      <point x="294" y="725"/>
      <point x="320" y="725" type="curve" smooth="yes"/>
      <point x="372" y="725"/>
      <point x="428" y="718"/>
      <point x="475" y="703" type="curve"/>
      <point x="475" y="432" type="line"/>
      <point x="325" y="432" type="line"/>
      <point x="325" y="620" type="line"/>
      <point x="324" y="620"/>
      <point x="321" y="620"/>
      <point x="320" y="620" type="curve" smooth="yes"/>
      <point x="319" y="620"/>
      <point x="317" y="620"/>
      <point x="315" y="620" type="curve"/>
      <point x="315" y="423" type="line"/>
      <point x="463" y="423" type="line"/>
      <point x="463" y="307" type="line"/>
      <point x="315" y="307" type="line"/>
      <point x="315" y="100" type="line"/>
      <point x="316" y="100"/>
      <point x="319" y="100"/>
      <point x="320" y="100" type="curve" smooth="yes"/>
      <point x="321" y="100"/>
      <point x="324" y="100"/>
      <point x="325" y="100" type="curve"/>
      <point x="325" y="298" type="line"/>
      <point x="475" y="298" type="line"/>
    </contour>
    <contour>
      <point x="165" y="359" type="line"/>
      <point x="165" y="626" type="line"/>
      <point x="164" y="626"/>
      <point x="161" y="626"/>
      <point x="160" y="626" type="curve" smooth="yes"/>
      <point x="159" y="626"/>
      <point x="156" y="626"/>
      <point x="155" y="626" type="curve"/>
      <point x="155" y="359" type="line"/>
    </contour>
  </outline>
</glyph>
<glyph name="Ccedilla" format="1">
  <advance width="320"/>
  <unicode hex="00C7"/>
  <outline>
    <contour>
      <point x="315" y="17" type="line"/>
      <point x="288" y="8"/>
      <point x="257" y="2"/>
      <point x="226" y="-1" type="curve"/>
      <point x="226" y="-93" type="line"/>
      <point x="185" y="-105"/>
      <point x="143" y="-112"/>
      <point x="91" y="-112" type="curve" smooth="yes"/>
      <point x="69" y="-112" type="line"/>
      <point x="69" y="-16" type="line"/>
      <point x="83" y="-16" type="line" smooth="yes"/>
      <point x="86" y="-16"/>
      <point x="95" y="-16"/>
      <point x="98" y="-16" type="curve"/>
      <point x="98" y="-2" type="line"/>
      <point x="66" y="2"/>
      <point x="34" y="8"/>
      <point x="5" y="17" type="curve"/>
      <point x="5" y="703" type="line"/>
      <point x="52" y="718"/>
      <point x="108" y="725"/>
      <point x="160" y="725" type="curve" smooth="yes"/>
      <point x="212" y="725"/>
      <point x="268" y="718"/>
      <point x="315" y="703" type="curve"/>
      <point x="315" y="383" type="line"/>
      <point x="165" y="383" type="line"/>
      <point x="165" y="620" type="line"/>
      <point x="164" y="620"/>
      <point x="161" y="620"/>
      <point x="160" y="620" type="curve" smooth="yes"/>
      <point x="159" y="620"/>
      <point x="157" y="620"/>
      <point x="155" y="620" type="curve"/>
      <point x="155" y="100" type="line"/>
      <point x="156" y="100"/>
      <point x="159" y="100"/>
      <point x="160" y="100" type="curve" smooth="yes"/>
      <point x="161" y="100"/>
      <point x="164" y="100"/>
      <point x="165" y="100" type="curve"/>
      <point x="165" y="338" type="line"/>
      <point x="315" y="338" type="line"/>
    </contour>
  </outline>
</glyph>
<glyph name="Eth" format="1">
  <advance width="335"/>
  <unicode hex="00D0"/>
  <outline>
    <contour>
      <point x="330" y="27" type="line"/>
      <point x="280" y="7"/>
      <point x="227" y="0"/>
      <point x="177" y="0" type="curve" smooth="yes"/>
      <point x="20" y="0" type="line"/>
      <point x="20" y="319" type="line"/>
      <point x="0" y="319" type="line"/>
      <point x="0" y="424" type="line"/>
      <point x="20" y="424" type="line"/>
      <point x="20" y="720" type="line"/>
      <point x="177" y="720" type="line" smooth="yes"/>
      <point x="227" y="720"/>
      <point x="280" y="713"/>
      <point x="330" y="693" type="curve"/>
    </contour>
    <contour>
      <point x="180" y="99" type="curve"/>
      <point x="180" y="621" type="line"/>
      <point x="179" y="621"/>
      <point x="176" y="621"/>
      <point x="175" y="621" type="curve" smooth="yes"/>
      <point x="174" y="621"/>
      <point x="171" y="621"/>
      <point x="170" y="621" type="curve"/>
      <point x="170" y="424" type="line"/>
      <point x="175" y="424" type="line"/>
      <point x="175" y="319" type="line"/>
      <point x="170" y="319" type="line"/>
      <point x="170" y="99" type="line"/>
      <point x="171" y="99"/>
      <point x="174" y="99"/>
      <point x="175" y="99" type="curve" smooth="yes"/>
      <point x="176" y="99"/>
      <point x="179" y="99"/>
    </contour>
  </outline>
</glyph>
<glyph name="Oslash" format="1">
  <advance width="320"/>
  <unicode hex="00D8"/>
  <outline>
    <contour>
      <point x="315" y="17" type="line"/>
      <point x="275" y="4"/>
      <point x="227" y="-3"/>
      <point x="182" y="-5" type="curve"/>
      <point x="182" y="-5" type="line"/>
      <point x="172" y="-75" type="line"/>
      <point x="15" y="-75" type="line"/>
      <point x="27" y="11" type="line"/>
      <point x="20" y="13"/>
      <point x="12" y="15"/>
      <point x="5" y="17" type="curve"/>
      <point x="5" y="703" type="line"/>
      <point x="45" y="716"/>
      <point x="93" y="723"/>
      <point x="138" y="725" type="curve"/>
      <point x="138" y="725" type="line"/>
      <point x="148" y="795" type="line"/>
      <point x="305" y="795" type="line"/>
      <point x="293" y="709" type="line"/>
      <point x="300" y="707"/>
      <point x="308" y="705"/>
      <point x="315" y="703" type="curve"/>
    </contour>
    <contour>
      <point x="165" y="100" type="curve"/>
      <point x="165" y="620" type="line"/>
      <point x="164" y="620"/>
      <point x="161" y="620"/>
      <point x="160" y="620" type="curve" smooth="yes"/>
      <point x="159" y="620"/>
      <point x="156" y="620"/>
      <point x="155" y="620" type="curve"/>
      <point x="155" y="100" type="line"/>
      <point x="156" y="100"/>
      <point x="159" y="100"/>
      <point x="160" y="100" type="curve" smooth="yes"/>
      <point x="161" y="100"/>
      <point x="164" y="100"/>
    </contour>
  </outline>
</glyph>
<glyph name="Thorn" format="1">
  <advance width="320"/>
  <unicode hex="00DE"/>
  <outline>
    <contour>
      <point x="315" y="153" type="line"/>
      <point x="272" y="139"/>
      <point x="220" y="131"/>
      <point x="162" y="131" type="curve" smooth="yes"/>
      <point x="155" y="131" type="line"/>
      <point x="155" y="0" type="line"/>
      <point x="5" y="0" type="line"/>
      <point x="5" y="720" type="line"/>
      <point x="155" y="720" type="line"/>
      <point x="155" y="596" type="line"/>
      <point x="162" y="596" type="line" smooth="yes"/>
      <point x="220" y="596"/>
      <point x="272" y="588"/>
      <point x="315" y="574" type="curve"/>
    </contour>
    <contour>
      <point x="165" y="227" type="curve"/>
      <point x="165" y="500" type="line"/>
      <point x="164" y="500"/>
      <point x="161" y="500"/>
      <point x="160" y="500" type="curve" smooth="yes"/>
      <point x="159" y="500"/>
      <point x="156" y="500"/>
      <point x="155" y="500" type="curve"/>
      <point x="155" y="227" type="line"/>
      <point x="156" y="227"/>
      <point x="159" y="227"/>
      <point x="160" y="227" type="curve" smooth="yes"/>
      <point x="161" y="227"/>
      <point x="164" y="227"/>
    </contour>
  </outline>
</glyph>
<glyph name="germandbls" format="1">
  <advance width="290"/>
  <unicode hex="00DF"/>
  <outline>
    <contour>
      <point x="285" y="22" type="line"/>
      <point x="241" y="3"/>
      <point x="201" y="0"/>
      <point x="145" y="0" type="curve"/>
      <point x="145" y="129" type="line"/>
      <point x="147" y="129"/>
      <point x="148" y="129"/>
      <point x="150" y="129" type="curve"/>
      <point x="150" y="316" type="line"/>
      <point x="149" y="316"/>
      <point x="146" y="316"/>
      <point x="144" y="316" type="curve" smooth="yes"/>
      <point x="140" y="316" type="line"/>
      <point x="140" y="0" type="line"/>
      <point x="5" y="0" type="line"/>
      <point x="5" y="706" type="line"/>
      <point x="44" y="719"/>
      <point x="93" y="725"/>
      <point x="145" y="725" type="curve" smooth="yes"/>
      <point x="197" y="725"/>
      <point x="246" y="719"/>
      <point x="285" y="706" type="curve"/>
      <point x="285" y="373" type="line"/>
      <point x="273" y="372"/>
      <point x="236" y="368"/>
      <point x="211" y="367" type="curve"/>
      <point x="236" y="366"/>
      <point x="273" y="362"/>
      <point x="285" y="360" type="curve"/>
    </contour>
    <contour>
      <point x="150" y="418" type="curve"/>
      <point x="150" y="632" type="line"/>
      <point x="148" y="632"/>
      <point x="146" y="632"/>
      <point x="145" y="632" type="curve" smooth="yes"/>
      <point x="144" y="632"/>
      <point x="141" y="632"/>
      <point x="140" y="632" type="curve"/>
      <point x="140" y="418" type="line"/>
      <point x="144" y="418" type="line" smooth="yes"/>
      <point x="146" y="418"/>
      <point x="148" y="418"/>
    </contour>
  </outline>
</glyph>
<glyph name="ccedilla" format="1">
  <advance width="290"/>
  <unicode hex="00E7"/>
  <outline>
    <contour>
      <point x="285" y="14" type="line"/>
      <point x="263" y="7"/>
      <point x="237" y="1"/>
      <point x="209" y="-2" type="curve"/>
      <point x="209" y="-93" type="line"/>
      <point x="168" y="-105"/>
      <point x="126" y="-112"/>
      <point x="74" y="-112" type="curve" smooth="yes"/>
      <point x="52" y="-112" type="line"/>
      <point x="52" y="-16" type="line"/>
      <point x="66" y="-16" type="line" smooth="yes"/>
      <point x="69" y="-16"/>
      <point x="78" y="-16"/>
      <point x="81" y="-16" type="curve"/>
      <point x="81" y="-2" type="line"/>
      <point x="53" y="1"/>
      <point x="27" y="7"/>
      <point x="5" y="14" type="curve"/>
      <point x="5" y="466" type="line"/>
      <point x="44" y="479"/>
      <point x="93" y="485"/>
      <point x="145" y="485" type="curve" smooth="yes"/>
      <point x="197" y="485"/>
      <point x="246" y="479"/>
      <point x="285" y="466" type="curve"/>
      <point x="285" y="245" type="line"/>
      <point x="150" y="245" type="line"/>
      <point x="150" y="392" type="line"/>
      <point x="149" y="392"/>
      <point x="146" y="392"/>
      <point x="145" y="392" type="curve" smooth="yes"/>
      <point x="144" y="392"/>
      <point x="141" y="392"/>
      <point x="140" y="392" type="curve"/>
      <point x="140" y="88" type="line"/>
      <point x="141" y="88"/>
      <point x="144" y="88"/>
      <point x="145" y="88" type="curve" smooth="yes"/>
      <point x="146" y="88"/>
      <point x="149" y="88"/>
      <point x="150" y="88" type="curve"/>
      <point x="150" y="236" type="line"/>
      <point x="285" y="236" type="line"/>
    </contour>
  </outline>
</glyph>
<glyph name="eth" format="1">
  <advance width="290"/>
  <unicode hex="00F0"/>
  <outline>
    <contour>
      <point x="285" y="14" type="line"/>
      <point x="246" y="1"/>
      <point x="197" y="-5"/>
      <point x="145" y="-5" type="curve" smooth="yes"/>
      <point x="93" y="-5"/>
      <point x="44" y="1"/>
      <point x="5" y="14" type="curve"/>
      <point x="5" y="461" type="line"/>
      <point x="45" y="474"/>
      <point x="95" y="480"/>
      <point x="142" y="480" type="curve" smooth="yes"/>
      <point x="143" y="480"/>
      <point x="149" y="480"/>
      <point x="150" y="480" type="curve"/>
      <point x="150" y="545" type="line"/>
      <point x="68" y="545" type="line"/>
      <point x="68" y="665" type="line"/>
      <point x="150" y="665" type="line"/>
      <point x="150" y="720" type="line"/>
      <point x="285" y="720" type="line"/>
      <point x="285" y="665" type="line"/>
      <point x="285" y="665" type="line"/>
      <point x="285" y="545" type="line"/>
      <point x="285" y="545" type="line"/>
    </contour>
    <contour>
      <point x="150" y="88" type="curve"/>
      <point x="150" y="387" type="line"/>
      <point x="149" y="387"/>
      <point x="146" y="387"/>
      <point x="145" y="387" type="curve" smooth="yes"/>
      <point x="144" y="387"/>
      <point x="141" y="387"/>
      <point x="140" y="387" type="curve"/>
      <point x="140" y="88" type="line"/>
      <point x="141" y="88"/>
      <point x="144" y="88"/>
      <point x="145" y="88" type="curve" smooth="yes"/>
      <point x="146" y="88"/>
      <point x="149" y="88"/>
    </contour>
  </outline>
</glyph>
<glyph name="oslash" format="1">
  <advance width="290"/>
  <unicode hex="00F8"/>
  <outline>
    <contour>
      <point x="285" y="14" type="line"/>
      <point x="252" y="3"/>
      <point x="212" y="-3"/>
      <point x="170" y="-5" type="curve"/>
      <point x="170" y="-5" type="line"/>
      <point x="157" y="-75" type="line"/>
      <point x="10" y="-75" type="line"/>
      <point x="25" y="8" type="line"/>
      <point x="18" y="10"/>
      <point x="11" y="12"/>
      <point x="5" y="14" type="curve"/>
      <point x="5" y="466" type="line"/>
      <point x="38" y="477"/>
      <point x="78" y="483"/>
      <point x="121" y="485" type="curve"/>
      <point x="121" y="485" type="line"/>
      <point x="133" y="550" type="line"/>
      <point x="280" y="550" type="line"/>
      <point x="266" y="472" type="line"/>
      <point x="272" y="470"/>
      <point x="279" y="468"/>
      <point x="285" y="466" type="curve"/>
    </contour>
    <contour>
      <point x="150" y="88" type="curve"/>
      <point x="150" y="392" type="line"/>
      <point x="149" y="392"/>
      <point x="146" y="392"/>
      <point x="145" y="392" type="curve" smooth="yes"/>
      <point x="144" y="392"/>
      <point x="141" y="392"/>
      <point x="140" y="392" type="curve"/>
      <point x="140" y="88" type="line"/>
      <point x="141" y="88"/>
      <point x="144" y="88"/>
      <point x="145" y="88" type="curve" smooth="yes"/>
      <point x="146" y="88"/>
      <point x="149" y="88"/>
    </contour>
  </outline>
</glyph>
<glyph name="thorn" format="1">
  <advance width="290"/>
  <unicode hex="00FE"/>
  <outline>
    <contour>
      <point x="285" y="19" type="line"/>
      <point x="245" y="6"/>
      <point x="195" y="0"/>
      <point x="148" y="0" type="curve" smooth="yes"/>
      <point x="147" y="0"/>
      <point x="141" y="0"/>
      <point x="140" y="0" type="curve"/>
      <point x="140" y="-175" type="line"/>
      <point x="5" y="-175" type="line"/>
      <point x="5" y="720" type="line"/>
      <point x="140" y="720" type="line"/>
      <point x="140" y="480" type="line"/>
      <point x="141" y="480"/>
      <point x="147" y="480"/>
      <point x="148" y="480" type="curve" smooth="yes"/>
      <point x="195" y="480"/>
      <point x="245" y="474"/>
      <point x="285" y="461" type="curve"/>
    </contour>
    <contour>
      <point x="150" y="93" type="curve"/>
      <point x="150" y="387" type="line"/>
      <point x="148" y="387"/>
      <point x="146" y="387"/>
      <point x="145" y="387" type="curve" smooth="yes"/>
      <point x="144" y="387"/>
      <point x="142" y="387"/>
      <point x="140" y="387" type="curve"/>
      <point x="140" y="93" type="line"/>
      <point x="141" y="93"/>
      <point x="144" y="93"/>
      <point x="145" y="93" type="curve" smooth="yes"/>
      <point x="146" y="93"/>
      <point x="148" y="93"/>
    </contour>
  </outline>
</glyph>
<glyph name="dotlessi" format="1">
  <advance width="148"/>
  <unicode hex="0131"/>
  <outline>
    <contour>
      <point x="143" y="0" type="line"/>
      <point x="5" y="0" type="line"/>
      <point x="5" y="480" type="line"/>
      <point x="143" y="480" type="line"/>
    </contour>
  </outline>
</glyph>
<glyph name="Lslash" format="1">
  <advance width="227"/>
  <unicode hex="0141"/>
  <outline>
    <contour>
      <point x="224" y="0" type="line"/>
      <point x="20" y="0" type="line"/>
      <point x="20" y="275" type="line"/>
      <point x="0" y="270" type="line"/>
      <point x="0" y="419" type="line"/>
      <point x="20" y="424" type="line"/>
      <point x="20" y="720" type="line"/>
      <point x="170" y="720" type="line"/>
      <point x="170" y="461" type="line"/>
      <point x="210" y="471" type="line"/>
      <point x="210" y="322" type="line"/>
      <point x="170" y="312" type="line"/>
      <point x="170" y="129" type="line"/>
      <point x="224" y="129" type="line"/>
    </contour>
  </outline>
</glyph>
<glyph name="lslash" format="1">
  <advance width="188"/>
  <unicode hex="0142"/>
  <outline>
    <contour>
      <point x="188" y="316" type="line"/>
      <point x="163" y="310" type="line"/>
      <point x="163" y="0" type="line"/>
      <point x="25" y="0" type="line"/>
      <point x="25" y="276" type="line"/>
      <point x="0" y="270" type="line"/>
      <point x="0" y="419" type="line"/>
      <point x="25" y="425" type="line"/>
      <point x="25" y="720" type="line"/>
      <point x="163" y="720" type="line"/>
      <point x="163" y="459" type="line"/>
      <point x="188" y="465" type="line"/>
    </contour>
  </outline>
</glyph>
<glyph name="oe" format="1">
  <advance width="435"/>
  <unicode hex="0153"/>
  <outline>
    <contour>
      <point x="430" y="14" type="line"/>
      <point x="391" y="1"/>
      <point x="342" y="-5"/>
      <point x="290" y="-5" type="curve" smooth="yes"/>
      <point x="265" y="-5"/>
      <point x="240" y="-4"/>
      <point x="217" y="-1" type="curve"/>
      <point x="195" y="-4"/>
      <point x="170" y="-5"/>
      <point x="145" y="-5" type="curve" smooth="yes"/>
      <point x="93" y="-5"/>
      <point x="44" y="1"/>
      <point x="5" y="14" type="curve"/>
      <point x="5" y="466" type="line"/>
      <point x="44" y="479"/>
      <point x="93" y="485"/>
      <point x="145" y="485" type="curve" smooth="yes"/>
      <point x="170" y="485"/>
      <point x="194" y="484"/>
      <point x="217" y="481" type="curve"/>
      <point x="240" y="484"/>
      <point x="265" y="485"/>
      <point x="290" y="485" type="curve" smooth="yes"/>
      <point x="342" y="485"/>
      <point x="391" y="479"/>
      <point x="430" y="466" type="curve"/>
      <point x="430" y="200" type="line"/>
      <point x="285" y="200" type="line"/>
      <point x="285" y="87" type="line"/>
      <point x="286" y="87"/>
      <point x="289" y="87"/>
      <point x="290" y="87" type="curve" smooth="yes"/>
      <point x="291" y="87"/>
      <point x="294" y="87"/>
      <point x="295" y="87" type="curve"/>
      <point x="295" y="191" type="line"/>
      <point x="430" y="191" type="line"/>
    </contour>
    <contour>
      <point x="295" y="266" type="curve"/>
      <point x="295" y="405" type="line"/>
      <point x="294" y="405"/>
      <point x="291" y="405"/>
      <point x="290" y="405" type="curve" smooth="yes"/>
      <point x="289" y="405"/>
      <point x="286" y="405"/>
      <point x="285" y="405" type="curve"/>
      <point x="285" y="266" type="line"/>
      <point x="287" y="266"/>
      <point x="293" y="266"/>
    </contour>
    <contour>
      <point x="150" y="87" type="curve"/>
      <point x="150" y="405" type="line"/>
      <point x="149" y="405"/>
      <point x="146" y="405"/>
      <point x="145" y="405" type="curve" smooth="yes"/>
      <point x="144" y="405"/>
      <point x="141" y="405"/>
      <point x="140" y="405" type="curve"/>
      <point x="140" y="87" type="line"/>
      <point x="141" y="87"/>
      <point x="144" y="87"/>
      <point x="145" y="87" type="curve" smooth="yes"/>
      <point x="146" y="87"/>
      <point x="149" y="87"/>
    </contour>
  </outline>
</glyph>
<glyph name="florin" format="1">
  <advance width="171"/>
  <unicode hex="0192"/>
  <outline>
    <contour>
      <point x="166" y="370" type="line"/>
      <point x="143" y="370" type="line"/>
      <point x="143" y="-158" type="line"/>
      <point x="102" y="-170"/>
      <point x="60" y="-177"/>
      <point x="8" y="-177" type="curve" smooth="yes"/>
      <point x="-18" y="-177" type="line"/>
      <point x="-18" y="-83" type="line"/>
      <point x="-5" y="-83" type="line" smooth="yes"/>
      <point x="-2" y="-83"/>
      <point x="2" y="-83"/>
      <point x="5" y="-83" type="curve"/>
      <point x="5" y="370" type="line"/>
      <point x="5" y="370" type="line"/>
      <point x="5" y="480" type="line"/>
      <point x="5" y="480" type="line"/>
      <point x="5" y="703" type="line"/>
      <point x="46" y="715"/>
      <point x="88" y="722"/>
      <point x="140" y="722" type="curve" smooth="yes"/>
      <point x="166" y="722" type="line"/>
      <point x="166" y="613" type="line"/>
      <point x="153" y="613" type="line" smooth="yes"/>
      <point x="150" y="613"/>
      <point x="146" y="613"/>
      <point x="143" y="613" type="curve"/>
      <point x="143" y="480" type="line"/>
      <point x="166" y="480" type="line"/>
    </contour>
  </outline>
</glyph>
<glyph name="circumflex" format="1">
  <advance width="290"/>
  <unicode hex="02C6"/>
  <outline>
    <contour>
      <point x="285" y="490" type="line"/>
      <point x="152" y="490" type="line"/>
      <point x="145" y="588" type="line"/>
      <point x="138" y="490" type="line"/>
      <point x="5" y="490" type="line"/>
      <point x="35" y="665" type="line"/>
      <point x="255" y="665" type="line"/>
    </contour>
  </outline>
</glyph>
<glyph name="caron" format="1">
  <advance width="290"/>
  <unicode hex="02C7"/>
  <outline>
    <contour>
      <point x="285" y="665" type="line"/>
      <point x="255" y="490" type="line"/>
      <point x="35" y="490" type="line"/>
      <point x="5" y="665" type="line"/>
      <point x="138" y="665" type="line"/>
      <point x="145" y="567" type="line"/>
      <point x="152" y="665" type="line"/>
    </contour>
  </outline>
</glyph>
<glyph name="breve" format="1">
  <advance width="290"/>
  <unicode hex="02D8"/>
  <outline>
    <contour>
      <point x="285" y="509" type="line"/>
      <point x="246" y="496"/>
      <point x="197" y="490"/>
      <point x="145" y="490" type="curve" smooth="yes"/>
      <point x="93" y="490"/>
      <point x="44" y="496"/>
      <point x="5" y="509" type="curve"/>
      <point x="5" y="665" type="line"/>
      <point x="140" y="665" type="line"/>
      <point x="140" y="583" type="line"/>
      <point x="142" y="583"/>
      <point x="144" y="583"/>
      <point x="145" y="583" type="curve" smooth="yes"/>
      <point x="146" y="583"/>
      <point x="148" y="583"/>
      <point x="150" y="583" type="curve"/>
      <point x="150" y="665" type="line"/>
      <point x="285" y="665" type="line"/>
    </contour>
  </outline>
</glyph>
<glyph name="dotaccent" format="1">
  <advance width="290"/>
  <unicode hex="02D9"/>
  <outline>
    <contour>
      <point x="228" y="490" type="line"/>
      <point x="63" y="490" type="line"/>
      <point x="63" y="665" type="line"/>
      <point x="228" y="665" type="line"/>
    </contour>
  </outline>
</glyph>
<glyph name="ring" format="1">
  <advance width="290"/>
  <unicode hex="02DA"/>
  <outline>
    <contour>
      <point x="285" y="509" type="line"/>
      <point x="246" y="496"/>
      <point x="197" y="490"/>
      <point x="145" y="490" type="curve" smooth="yes"/>
      <point x="93" y="490"/>
      <point x="44" y="496"/>
      <point x="5" y="509" type="curve"/>
      <point x="5" y="646" type="line"/>
      <point x="44" y="659"/>
      <point x="93" y="665"/>
      <point x="145" y="665" type="curve" smooth="yes"/>
      <point x="197" y="665"/>
      <point x="246" y="659"/>
      <point x="285" y="646" type="curve"/>
    </contour>
    <contour>
      <point x="150" y="553" type="curve"/>
      <point x="150" y="602" type="line"/>
      <point x="149" y="602"/>
      <point x="146" y="602"/>
      <point x="145" y="602" type="curve" smooth="yes"/>
      <point x="144" y="602"/>
      <point x="141" y="602"/>
      <point x="140" y="602" type="curve"/>
      <point x="140" y="553" type="line"/>
      <point x="141" y="553"/>
      <point x="144" y="553"/>
      <point x="145" y="553" type="curve" smooth="yes"/>
      <point x="146" y="553"/>
      <point x="149" y="553"/>
    </contour>
  </outline>
</glyph>
<glyph name="ogonek" format="1">
  <advance width="290"/>
  <unicode hex="02DB"/>
  <outline>
    <contour>
      <point x="238" y="-112" type="line"/>
      <point x="216" y="-112" type="line" smooth="yes"/>
      <point x="164" y="-112"/>
      <point x="122" y="-105"/>
      <point x="81" y="-93" type="curve"/>
      <point x="81" y="10" type="line"/>
      <point x="209" y="10" type="line"/>
      <point x="209" y="-16" type="line"/>
      <point x="212" y="-16"/>
      <point x="221" y="-16"/>
      <point x="224" y="-16" type="curve" smooth="yes"/>
      <point x="238" y="-16" type="line"/>
    </contour>
  </outline>
</glyph>
<glyph name="tilde" format="1">
  <advance width="290"/>
  <unicode hex="02DC"/>
  <outline>
    <contour>
      <point x="285" y="490" type="line"/>
      <point x="168" y="490" type="line"/>
      <point x="122" y="530" type="line"/>
      <point x="122" y="490" type="line"/>
      <point x="5" y="490" type="line"/>
      <point x="5" y="665" type="line"/>
      <point x="122" y="665" type="line"/>
      <point x="168" y="625" type="line"/>
      <point x="168" y="665" type="line"/>
      <point x="285" y="665" type="line"/>
    </contour>
  </outline>
</glyph>
<glyph name="hungarumlaut" format="1">
  <advance width="290"/>
  <unicode hex="02DD"/>
  <outline>
    <contour>
      <point x="310" y="665" type="line"/>
      <point x="251" y="490" type="line"/>
      <point x="120" y="490" type="line"/>
      <point x="174" y="665" type="line"/>
    </contour>
    <contour>
      <point x="164" y="665" type="line"/>
      <point x="110" y="490" type="line"/>
      <point x="-20" y="490" type="line"/>
      <point x="29" y="665" type="line"/>
    </contour>
  </outline>
</glyph>
<glyph name="endash" format="1">
  <advance width="217"/>
  <unicode hex="2013"/>
  <outline>
    <contour>
      <point x="214" y="243" type="line"/>
      <point x="3" y="243" type="line"/>
      <point x="3" y="373" type="line"/>
      <point x="214" y="373" type="line"/>
    </contour>
  </outline>
</glyph>
<glyph name="emdash" format="1">
  <advance width="287"/>
  <unicode hex="2014"/>
  <outline>
    <contour>
      <point x="284" y="243" type="line"/>
      <point x="3" y="243" type="line"/>
      <point x="3" y="373" type="line"/>
      <point x="284" y="373" type="line"/>
    </contour>
  </outline>
</glyph>
<glyph name="quoteleft" format="1">
  <advance width="148"/>
  <unicode hex="2018"/>
  <unicode hex="02BB"/>
  <outline>
    <contour>
      <point x="147" y="398" type="line"/>
      <point x="9" y="398" type="line"/>
      <point x="1" y="720" type="line"/>
      <point x="139" y="720" type="line"/>
    </contour>
  </outline>
</glyph>
<glyph name="quoteright" format="1">
  <advance width="148"/>
  <unicode hex="2019"/>
  <unicode hex="02BC"/>
  <outline>
    <contour>
      <point x="147" y="720" type="line"/>
      <point x="139" y="398" type="line"/>
      <point x="1" y="398" type="line"/>
      <point x="9" y="720" type="line"/>
    </contour>
  </outline>
</glyph>
<glyph name="quotesinglbase" format="1">
  <advance width="148"/>
  <unicode hex="201A"/>
  <outline>
    <contour>
      <point x="145" y="141" type="line"/>
      <point x="136" y="-121" type="line"/>
      <point x="0" y="-121" type="line"/>
      <point x="9" y="141" type="line"/>
    </contour>
  </outline>
</glyph>
<glyph name="quotedblleft" format="1">
  <advance width="292"/>
  <unicode hex="201C"/>
  <outline>
    <contour>
      <point x="291" y="398" type="line"/>
      <point x="155" y="398" type="line"/>
      <point x="147" y="720" type="line"/>
      <point x="283" y="720" type="line"/>
    </contour>
    <contour>
      <point x="145" y="398" type="line"/>
      <point x="9" y="398" type="line"/>
      <point x="1" y="720" type="line"/>
      <point x="137" y="720" type="line"/>
    </contour>
  </outline>
</glyph>
<glyph name="quotedblright" format="1">
  <advance width="292"/>
  <unicode hex="201D"/>
  <outline>
    <contour>
      <point x="291" y="720" type="line"/>
      <point x="283" y="398" type="line"/>
      <point x="147" y="398" type="line"/>
      <point x="155" y="720" type="line"/>
    </contour>
    <contour>
      <point x="145" y="720" type="line"/>
      <point x="137" y="398" type="line"/>
      <point x="1" y="398" type="line"/>
      <point x="9" y="720" type="line"/>
    </contour>
  </outline>
</glyph>
<glyph name="quotedblbase" format="1">
  <advance width="292"/>
  <unicode hex="201E"/>
  <outline>
    <contour>
      <point x="291" y="141" type="line"/>
      <point x="282" y="-121" type="line"/>
      <point x="146" y="-121" type="line"/>
      <point x="155" y="141" type="line"/>
    </contour>
    <contour>
      <point x="145" y="141" type="line"/>
      <point x="136" y="-121" type="line"/>
      <point x="0" y="-121" type="line"/>
      <point x="9" y="141" type="line"/>
    </contour>
  </outline>
</glyph>
<glyph name="dagger" format="1">
  <advance width="214"/>
  <unicode hex="2020"/>
  <outline>
    <contour>
      <point x="212" y="356" type="line"/>
      <point x="192" y="356" type="line"/>
      <point x="192" y="0" type="line"/>
      <point x="22" y="0" type="line"/>
      <point x="22" y="356" type="line"/>
      <point x="2" y="356" type="line"/>
      <point x="2" y="480" type="line"/>
      <point x="22" y="480" type="line"/>
      <point x="22" y="720" type="line"/>
      <point x="192" y="720" type="line"/>
      <point x="192" y="480" type="line"/>
      <point x="212" y="480" type="line"/>
    </contour>
  </outline>
</glyph>
<glyph name="daggerdbl" format="1">
  <advance width="214"/>
  <unicode hex="2021"/>
  <outline>
    <contour>
      <point x="212" y="195" type="line"/>
      <point x="192" y="195" type="line"/>
      <point x="192" y="0" type="line"/>
      <point x="22" y="0" type="line"/>
      <point x="22" y="195" type="line"/>
      <point x="2" y="195" type="line"/>
      <point x="2" y="319" type="line"/>
      <point x="22" y="319" type="line"/>
      <point x="22" y="356" type="line"/>
      <point x="2" y="356" type="line"/>
      <point x="2" y="480" type="line"/>
      <point x="22" y="480" type="line"/>
      <point x="22" y="720" type="line"/>
      <point x="192" y="720" type="line"/>
      <point x="192" y="480" type="line"/>
      <point x="212" y="480" type="line"/>
      <point x="212" y="356" type="line"/>
      <point x="192" y="356" type="line"/>
      <point x="192" y="319" type="line"/>
      <point x="212" y="319" type="line"/>
    </contour>
  </outline>
</glyph>
<glyph name="bullet" format="1">
  <advance width="290"/>
  <unicode hex="2022"/>
  <outline>
    <contour>
      <point x="285" y="164" type="line"/>
      <point x="246" y="151"/>
      <point x="197" y="145"/>
      <point x="145" y="145" type="curve" smooth="yes"/>
      <point x="93" y="145"/>
      <point x="44" y="151"/>
      <point x="5" y="164" type="curve"/>
      <point x="5" y="556" type="line"/>
      <point x="44" y="569"/>
      <point x="93" y="575"/>
      <point x="145" y="575" type="curve" smooth="yes"/>
      <point x="197" y="575"/>
      <point x="246" y="569"/>
      <point x="285" y="556" type="curve"/>
    </contour>
  </outline>
</glyph>
<glyph name="ellipsis" format="1">
  <advance width="444"/>
  <unicode hex="2026"/>
  <outline>
    <contour>
      <point x="439" y="0" type="line"/>
      <point x="301" y="0" type="line"/>
      <point x="301" y="141" type="line"/>
      <point x="439" y="141" type="line"/>
    </contour>
    <contour>
      <point x="291" y="0" type="line"/>
      <point x="153" y="0" type="line"/>
      <point x="153" y="141" type="line"/>
      <point x="291" y="141" type="line"/>
    </contour>
    <contour>
      <point x="143" y="0" type="line"/>
      <point x="5" y="0" type="line"/>
      <point x="5" y="141" type="line"/>
      <point x="143" y="141" type="line"/>
    </contour>
  </outline>
</glyph>
<glyph name="perthousand" format="1">
  <advance width="865"/>
  <unicode hex="2030"/>
  <outline>
    <contour>
      <point x="860" y="10" type="line"/>
      <point x="819" y="-1"/>
      <point x="779" y="-5"/>
      <point x="744" y="-5" type="curve" smooth="yes"/>
      <point x="710" y="-5"/>
      <point x="670" y="-1"/>
      <point x="629" y="10" type="curve"/>
      <point x="629" y="368" type="line"/>
      <point x="670" y="379"/>
      <point x="710" y="383"/>
      <point x="744" y="383" type="curve" smooth="yes"/>
      <point x="779" y="383"/>
      <point x="819" y="379"/>
      <point x="860" y="368" type="curve"/>
    </contour>
    <contour>
      <point x="619" y="10" type="line"/>
      <point x="578" y="-1"/>
      <point x="538" y="-5"/>
      <point x="503" y="-5" type="curve" smooth="yes"/>
      <point x="469" y="-5"/>
      <point x="429" y="-1"/>
      <point x="388" y="10" type="curve"/>
      <point x="388" y="368" type="line"/>
      <point x="429" y="379"/>
      <point x="469" y="383"/>
      <point x="503" y="383" type="curve" smooth="yes"/>
      <point x="538" y="383"/>
      <point x="578" y="379"/>
      <point x="619" y="368" type="curve"/>
    </contour>
    <contour>
      <point x="415" y="720" type="line"/>
      <point x="344" y="0" type="line"/>
      <point x="209" y="0" type="line"/>
      <point x="280" y="720" type="line"/>
    </contour>
    <contour>
      <point x="236" y="353" type="line"/>
      <point x="195" y="342"/>
      <point x="155" y="338"/>
      <point x="120" y="338" type="curve" smooth="yes"/>
      <point x="86" y="338"/>
      <point x="46" y="342"/>
      <point x="5" y="353" type="curve"/>
      <point x="5" y="710" type="line"/>
      <point x="46" y="721"/>
      <point x="86" y="725"/>
      <point x="120" y="725" type="curve" smooth="yes"/>
      <point x="155" y="725"/>
      <point x="195" y="721"/>
      <point x="236" y="710" type="curve"/>
    </contour>
    <contour>
      <point x="749" y="74" type="curve"/>
      <point x="749" y="302" type="line"/>
      <point x="748" y="302"/>
      <point x="746" y="302"/>
      <point x="744" y="302" type="curve" smooth="yes"/>
      <point x="743" y="302"/>
      <point x="741" y="302"/>
      <point x="739" y="302" type="curve"/>
      <point x="739" y="74" type="line"/>
      <point x="741" y="74"/>
      <point x="743" y="74"/>
      <point x="744" y="74" type="curve" smooth="yes"/>
      <point x="746" y="74"/>
      <point x="748" y="74"/>
    </contour>
    <contour>
      <point x="508" y="74" type="curve"/>
      <point x="508" y="302" type="line"/>
      <point x="507" y="302"/>
      <point x="505" y="302"/>
      <point x="503" y="302" type="curve" smooth="yes"/>
      <point x="502" y="302"/>
      <point x="500" y="302"/>
      <point x="498" y="302" type="curve"/>
      <point x="498" y="74" type="line"/>
      <point x="500" y="74"/>
      <point x="502" y="74"/>
      <point x="503" y="74" type="curve" smooth="yes"/>
      <point x="505" y="74"/>
      <point x="507" y="74"/>
    </contour>
    <contour>
      <point x="125" y="417" type="curve"/>
      <point x="125" y="644" type="line"/>
      <point x="124" y="644"/>
      <point x="122" y="644"/>
      <point x="120" y="644" type="curve" smooth="yes"/>
      <point x="119" y="644"/>
      <point x="117" y="644"/>
      <point x="115" y="644" type="curve"/>
      <point x="115" y="417" type="line"/>
      <point x="117" y="417"/>
      <point x="119" y="417"/>
      <point x="120" y="417" type="curve" smooth="yes"/>
      <point x="122" y="417"/>
      <point x="124" y="417"/>
    </contour>
  </outline>
</glyph>
<glyph name="guilsinglleft" format="1">
  <advance width="160"/>
  <unicode hex="2039"/>
  <outline>
    <contour>
      <point x="157" y="0" type="line"/>
      <point x="3" y="159" type="line"/>
      <point x="3" y="321" type="line"/>
      <point x="157" y="480" type="line"/>
      <point x="157" y="295" type="line"/>
      <point x="102" y="240" type="line"/>
      <point x="157" y="186" type="line"/>
    </contour>
  </outline>
</glyph>
<glyph name="guilsinglright" format="1">
  <advance width="160"/>
  <unicode hex="203A"/>
  <outline>
    <contour>
      <point x="157" y="159" type="line"/>
      <point x="3" y="0" type="line"/>
      <point x="3" y="186" type="line"/>
      <point x="58" y="240" type="line"/>
      <point x="3" y="295" type="line"/>
      <point x="3" y="480" type="line"/>
      <point x="157" y="321" type="line"/>
    </contour>
  </outline>
</glyph>
<glyph name="fraction" format="1">
  <advance width="222"/>
  <unicode hex="2044"/>
  <unicode hex="2215"/>
  <outline>
    <contour>
      <point x="222" y="720" type="line"/>
      <point x="157" y="0" type="line"/>
      <point x="0" y="0" type="line"/>
      <point x="65" y="720" type="line"/>
    </contour>
  </outline>
</glyph>
<glyph name="uni2117" format="1">
  <advance width="388"/>
  <unicode hex="2117"/>
  <outline>
    <contour>
      <point x="383" y="22" type="line"/>
      <point x="325" y="2"/>
      <point x="256" y="-5"/>
      <point x="194" y="-5" type="curve" smooth="yes"/>
      <point x="132" y="-5"/>
      <point x="63" y="2"/>
      <point x="5" y="22" type="curve"/>
      <point x="5" y="698" type="line"/>
      <point x="63" y="718"/>
      <point x="132" y="725"/>
      <point x="194" y="725" type="curve" smooth="yes"/>
      <point x="256" y="725"/>
      <point x="325" y="718"/>
      <point x="383" y="698" type="curve"/>
    </contour>
    <contour>
      <point x="311" y="78" type="curve"/>
      <point x="311" y="642" type="line"/>
      <point x="277" y="652"/>
      <point x="228" y="656"/>
      <point x="194" y="656" type="curve" smooth="yes"/>
      <point x="160" y="656"/>
      <point x="111" y="652"/>
      <point x="78" y="642" type="curve"/>
      <point x="78" y="78" type="line"/>
      <point x="111" y="68"/>
      <point x="160" y="64"/>
      <point x="194" y="64" type="curve" smooth="yes"/>
      <point x="228" y="64"/>
      <point x="277" y="68"/>
    </contour>
    <contour>
      <point x="301" y="301" type="line"/>
      <point x="272" y="291"/>
      <point x="236" y="286"/>
      <point x="196" y="286" type="curve" smooth="yes"/>
      <point x="190" y="286" type="line"/>
      <point x="190" y="82" type="line"/>
      <point x="88" y="82" type="line"/>
      <point x="88" y="638" type="line"/>
      <point x="196" y="638" type="line" smooth="yes"/>
      <point x="236" y="638"/>
      <point x="272" y="633"/>
      <point x="301" y="623" type="curve"/>
    </contour>
    <contour>
      <point x="199" y="362" type="curve"/>
      <point x="199" y="572" type="line"/>
      <point x="198" y="572"/>
      <point x="195" y="572"/>
      <point x="195" y="572" type="curve" smooth="yes"/>
      <point x="194" y="572"/>
      <point x="191" y="572"/>
      <point x="190" y="572" type="curve"/>
      <point x="190" y="362" type="line"/>
      <point x="191" y="362"/>
      <point x="194" y="362"/>
      <point x="195" y="362" type="curve" smooth="yes"/>
      <point x="195" y="362"/>
      <point x="198" y="362"/>
    </contour>
  </outline>
</glyph>
<glyph name="trademark" format="1">
  <advance width="506"/>
  <unicode hex="2122"/>
  <outline>
    <contour>
      <point x="501" y="256" type="line"/>
      <point x="401" y="256" type="line"/>
      <point x="401" y="651" type="line"/>
      <point x="400" y="651"/>
      <point x="393" y="651"/>
      <point x="391" y="651" type="curve"/>
      <point x="391" y="256" type="line"/>
      <point x="295" y="256" type="line"/>
      <point x="295" y="651" type="line"/>
      <point x="293" y="651"/>
      <point x="286" y="651"/>
      <point x="285" y="651" type="curve"/>
      <point x="285" y="256" type="line"/>
      <point x="185" y="256" type="line"/>
      <point x="185" y="705" type="line"/>
      <point x="230" y="718"/>
      <point x="283" y="723"/>
      <point x="343" y="723" type="curve" smooth="yes"/>
      <point x="402" y="723"/>
      <point x="456" y="718"/>
      <point x="501" y="705" type="curve"/>
    </contour>
    <contour>
      <point x="177" y="632" type="line"/>
      <point x="142" y="632" type="line"/>
      <point x="142" y="256" type="line"/>
      <point x="38" y="256" type="line"/>
      <point x="38" y="632" type="line"/>
      <point x="3" y="632" type="line"/>
      <point x="3" y="720" type="line"/>
      <point x="177" y="720" type="line"/>
    </contour>
  </outline>
</glyph>
<glyph name="radical" format="1">
  <advance width="310"/>
  <unicode hex="221A"/>
  <outline>
    <contour>
      <point x="308" y="720" type="line"/>
      <point x="250" y="0" type="line"/>
      <point x="45" y="0" type="line"/>
      <point x="2" y="311" type="line"/>
      <point x="135" y="311" type="line"/>
      <point x="143" y="143" type="line"/>
      <point x="173" y="720" type="line"/>
    </contour>
  </outline>
</glyph>
<glyph name="apple" format="1">
  <advance width="320"/>
  <unicode hex="F8FF"/>
  <outline>
    <contour>
      <point x="315" y="425" type="line"/>
      <point x="165" y="425" type="line"/>
      <point x="165" y="620" type="line"/>
      <point x="164" y="620"/>
      <point x="161" y="620"/>
      <point x="160" y="620" type="curve" smooth="yes"/>
      <point x="159" y="620"/>
      <point x="156" y="620"/>
      <point x="155" y="620" type="curve"/>
      <point x="155" y="425" type="line"/>
      <point x="5" y="425" type="line"/>
      <point x="5" y="703" type="line"/>
      <point x="52" y="718"/>
      <point x="108" y="725"/>
      <point x="160" y="725" type="curve" smooth="yes"/>
      <point x="212" y="725"/>
      <point x="268" y="718"/>
      <point x="315" y="703" type="curve"/>
    </contour>
    <contour>
      <point x="303" y="304" type="line"/>
      <point x="237" y="304" type="line"/>
      <point x="237" y="304" type="line"/>
      <point x="83" y="304" type="line"/>
      <point x="83" y="304" type="line"/>
      <point x="17" y="304" type="line"/>
      <point x="17" y="416" type="line"/>
      <point x="83" y="416" type="line"/>
      <point x="83" y="416" type="line"/>
      <point x="237" y="416" type="line"/>
      <point x="237" y="416" type="line"/>
      <point x="303" y="416" type="line"/>
    </contour>
    <contour>
      <point x="315" y="17" type="line"/>
      <point x="268" y="2"/>
      <point x="212" y="-5"/>
      <point x="160" y="-5" type="curve" smooth="yes"/>
      <point x="108" y="-5"/>
      <point x="52" y="2"/>
      <point x="5" y="17" type="curve"/>
      <point x="5" y="295" type="line"/>
      <point x="155" y="295" type="line"/>
      <point x="155" y="100" type="line"/>
      <point x="156" y="100"/>
      <point x="159" y="100"/>
      <point x="160" y="100" type="curve" smooth="yes"/>
      <point x="161" y="100"/>
      <point x="164" y="100"/>
      <point x="165" y="100" type="curve"/>
      <point x="165" y="295" type="line"/>
      <point x="315" y="295" type="line"/>
    </contour>
  </outline>
</glyph>
<glyph name="fi" format="1">
  <advance width="317"/>
  <unicode hex="FB01"/>
  <outline>
    <contour>
      <point x="312" y="490" type="line"/>
      <point x="174" y="490" type="line"/>
      <point x="174" y="628" type="line"/>
      <point x="312" y="628" type="line"/>
    </contour>
    <contour>
      <point x="312" y="0" type="line"/>
      <point x="174" y="0" type="line"/>
      <point x="174" y="480" type="line"/>
      <point x="312" y="480" type="line"/>
    </contour>
    <contour>
      <point x="166" y="370" type="line"/>
      <point x="143" y="370" type="line"/>
      <point x="143" y="0" type="line"/>
      <point x="5" y="0" type="line"/>
      <point x="5" y="370" type="line"/>
      <point x="5" y="370" type="line"/>
      <point x="5" y="480" type="line"/>
      <point x="5" y="480" type="line"/>
      <point x="5" y="703" type="line"/>
      <point x="46" y="715"/>
      <point x="88" y="722"/>
      <point x="140" y="722" type="curve" smooth="yes"/>
      <point x="166" y="722" type="line"/>
      <point x="166" y="613" type="line"/>
      <point x="153" y="613" type="line" smooth="yes"/>
      <point x="150" y="613"/>
      <point x="146" y="613"/>
      <point x="143" y="613" type="curve"/>
      <point x="143" y="480" type="line"/>
      <point x="166" y="480" type="line"/>
    </contour>
  </outline>
</glyph>
<glyph name="registered" format="1">
  <advance width="388"/>
  <outline>
    <contour>
      <point x="383" y="22" type="line"/>
      <point x="325" y="2"/>
      <point x="256" y="-5"/>
      <point x="194" y="-5" type="curve" smooth="yes"/>
      <point x="132" y="-5"/>
      <point x="63" y="2"/>
      <point x="5" y="22" type="curve"/>
      <point x="5" y="698" type="line"/>
      <point x="63" y="718"/>
      <point x="132" y="725"/>
      <point x="194" y="725" type="curve" smooth="yes"/>
      <point x="256" y="725"/>
      <point x="325" y="718"/>
      <point x="383" y="698" type="curve"/>
    </contour>
    <contour>
      <point x="311" y="78" type="curve"/>
      <point x="311" y="642" type="line"/>
      <point x="277" y="652"/>
      <point x="228" y="656"/>
      <point x="194" y="656" type="curve" smooth="yes"/>
      <point x="160" y="656"/>
      <point x="111" y="652"/>
      <point x="78" y="642" type="curve"/>
      <point x="78" y="78" type="line"/>
      <point x="111" y="68"/>
      <point x="160" y="64"/>
      <point x="194" y="64" type="curve" smooth="yes"/>
      <point x="228" y="64"/>
      <point x="277" y="68"/>
    </contour>
    <contour>
      <point x="301" y="82" type="line"/>
      <point x="199" y="82" type="line"/>
      <point x="199" y="326" type="line"/>
      <point x="198" y="326"/>
      <point x="195" y="326"/>
      <point x="195" y="326" type="curve" smooth="yes"/>
      <point x="194" y="326"/>
      <point x="191" y="326"/>
      <point x="190" y="326" type="curve"/>
      <point x="190" y="82" type="line"/>
      <point x="88" y="82" type="line"/>
      <point x="88" y="638" type="line"/>
      <point x="196" y="638" type="line" smooth="yes"/>
      <point x="236" y="638"/>
      <point x="272" y="633"/>
      <point x="301" y="623" type="curve"/>
      <point x="301" y="373" type="line"/>
      <point x="293" y="372"/>
      <point x="267" y="370"/>
      <point x="250" y="369" type="curve"/>
      <point x="267" y="368"/>
      <point x="293" y="365"/>
      <point x="301" y="364" type="curve"/>
    </contour>
    <contour>
      <point x="199" y="387" type="curve"/>
      <point x="199" y="576" type="line"/>
      <point x="198" y="576"/>
      <point x="195" y="576"/>
      <point x="195" y="576" type="curve" smooth="yes"/>
      <point x="194" y="576"/>
      <point x="191" y="576"/>
      <point x="190" y="576" type="curve"/>
      <point x="190" y="387" type="line"/>
      <point x="191" y="387"/>
      <point x="194" y="387"/>
      <point x="195" y="387" type="curve" smooth="yes"/>
      <point x="195" y="387"/>
      <point x="198" y="387"/>
    </contour>
  </outline>
</glyph>
